<svg width="64" height="64" fill="none" xmlns="http://www.w3.org/2000/svg"><path d="M36.784 18.187c1.224 0 2.216-.977 2.216-2.183 0-1.205-.992-2.182-2.216-2.182-1.224 0-2.216.977-2.216 2.183 0 1.205.992 2.182 2.216 2.182zm-8.864 0c1.224 0 2.216-.977 2.216-2.183 0-1.205-.992-2.182-2.215-2.182-1.224 0-2.216.977-2.216 2.183 0 1.205.992 2.182 2.216 2.182z" fill="#24D776"/><path d="M23.489 37.082c-1.224 0-2.216.977-2.216 2.183v4.365c0 1.204-.994 2.183-2.216 2.183H4.432v-6.548c0-1.206-.992-2.183-2.216-2.183-1.224 0-2.216.977-2.216 2.183v17.461c0 1.206.992 2.183 2.216 2.183 1.224 0 2.216-.977 2.216-2.183v-6.548h14.625c3.665 0 6.648-2.937 6.648-6.548v-4.365c0-1.206-.992-2.183-2.216-2.183zm31.022-23.26h-6.266c.915-2.54 3.378-4.366 6.266-4.366 1.224 0 2.216-.977 2.216-2.182 0-1.206-.992-2.183-2.216-2.183H6.648C2.982 5.09 0 8.028 0 11.639v13.096c0 3.611 2.982 6.549 6.648 6.549h34.568c2.889 0 5.352-1.825 6.267-4.366h7.028c1.224 0 2.216-.977 2.216-2.183v-8.73c0-1.206-.992-2.183-2.216-2.183zM41.216 26.918H6.648c-1.222 0-2.216-.979-2.216-2.183V11.64c0-1.204.994-2.183 2.216-2.183h39.005a10.753 10.753 0 00-2.221 6.549v8.73c0 1.204-.994 2.183-2.216 2.183zm11.08-4.365h-4.432v-4.366h4.431v4.366z" fill="#fff"/></svg>