<svg width="315" height="45" fill="none" xmlns="http://www.w3.org/2000/svg"><path d="M25.29 13.004c.84 0 1.523-.672 1.523-1.5 0-.83-.683-1.502-1.524-1.502s-1.523.672-1.523 1.501c0 .829.682 1.5 1.523 1.5zm-6.095 0c.842 0 1.524-.672 1.524-1.5 0-.83-.682-1.502-1.524-1.502-.841 0-1.523.672-1.523 1.501 0 .829.682 1.5 1.523 1.5z" fill="#24D776"/><path d="M16.148 25.994c-.841 0-1.523.672-1.523 1.5v3.002c0 .827-.683 1.5-1.523 1.5H3.047v-4.502c0-.828-.682-1.5-1.524-1.5-.841 0-1.523.672-1.523 1.5V39.5c0 .83.682 1.5 1.523 1.5.842 0 1.524-.672 1.524-1.5v-4.502h10.055c2.52 0 4.57-2.02 4.57-4.502v-3.002c0-.828-.682-1.5-1.524-1.5zm21.329-15.992h-4.309a4.574 4.574 0 014.309-3A1.514 1.514 0 0039 5.5c0-.83-.682-1.5-1.523-1.5H4.57C2.05 4 0 6.02 0 8.502v9.004c0 2.482 2.05 4.502 4.57 4.502h23.766a4.574 4.574 0 004.308-3.002h4.833c.841 0 1.523-.672 1.523-1.5v-6.003c0-.829-.682-1.5-1.523-1.5zm-9.141 9.004H4.57c-.84 0-1.523-.673-1.523-1.5V8.502c0-.828.683-1.5 1.523-1.5h26.816a7.392 7.392 0 00-1.527 4.501v6.003c0 .827-.683 1.5-1.523 1.5zm7.617-3.001h-3.047v-3.001h3.047v3.001z" fill="#346DFF"/><path d="M64.823 8.667V18h2.924V6.1H57.36V18h2.924V8.667h4.539zm7.913 3.383c0-.703.136-1.32.408-1.853a3.19 3.19 0 011.173-1.275c.51-.306 1.105-.459 1.785-.459.692 0 1.287.153 1.785.459.499.306.884.731 1.156 1.275.272.533.408 1.15.408 1.853 0 .703-.141 1.326-.425 1.87a3.062 3.062 0 01-1.173 1.258c-.498.306-1.082.459-1.75.459-.68 0-1.276-.153-1.786-.459a3.22 3.22 0 01-1.173-1.258c-.272-.544-.408-1.167-.408-1.87zm-3.043 0c0 .918.153 1.762.46 2.533.317.77.759 1.44 1.325 2.006a6.22 6.22 0 002.04 1.326c.782.306 1.644.459 2.584.459.93 0 1.785-.153 2.567-.459a6.03 6.03 0 002.023-1.326 5.742 5.742 0 001.326-2.006c.318-.77.476-1.615.476-2.533 0-.918-.158-1.757-.476-2.516a5.806 5.806 0 00-1.343-1.972 5.922 5.922 0 00-2.04-1.275c-.77-.306-1.615-.459-2.533-.459a6.89 6.89 0 00-2.533.459 5.922 5.922 0 00-2.04 1.275 6.018 6.018 0 00-1.36 1.972c-.317.76-.476 1.598-.476 2.516zm20.332-1.36l2.465 6.8h3.316l-5.78-11.985-5.797 11.985h3.314l2.482-6.8zm3.91 7.31v1.87h2.856v-4.335H83.243v4.335h2.856V18h7.837zm12.115-5.916h2.227c.828 0 1.553-.113 2.176-.34.635-.238 1.134-.578 1.496-1.02.374-.442.561-.975.561-1.598 0-.68-.187-1.241-.561-1.683-.362-.453-.861-.788-1.496-1.003-.623-.227-1.348-.34-2.176-.34h-4.369V18h4.658c.941 0 1.757-.113 2.448-.34.692-.238 1.224-.6 1.598-1.088.386-.487.578-1.128.578-1.921 0-.6-.136-1.11-.408-1.53a3.12 3.12 0 00-1.054-1.054 4.636 4.636 0 00-1.479-.612 7.509 7.509 0 00-1.683-.187h-2.516v1.564h2.193c.284 0 .539.028.765.085.238.045.448.125.629.238.182.113.323.26.425.442.102.181.153.397.153.646 0 .385-.09.691-.272.918-.17.215-.402.374-.697.476-.294.09-.629.136-1.003.136h-1.462V8.327h1.19c.499 0 .884.102 1.156.306.272.204.408.51.408.918 0 .272-.062.504-.187.697a1.22 1.22 0 01-.544.425c-.226.102-.504.153-.833.153h-1.921v1.258zm20.044-2.992l.085-3.587-10.897 9.503-.085 3.587 10.897-9.503zM117.951 6.1h-2.754v12.495l2.754-2.822V6.1zm8.228-.595l-2.771 2.924V18h2.771V5.505zm8.721 5.185l2.465 6.8h3.315L134.9 5.505l-5.797 11.985h3.315l2.482-6.8zm3.91 7.31v1.87h2.856v-4.335h-13.549v4.335h2.856V18h7.837zm6.78 0h6.001v-2.363h-6.001V18zm0-9.537h6.001V6.1h-6.001v2.363zm0 4.437h5.661v-2.312h-5.661V12.9zm-1.904-6.8V18h2.754V6.1h-2.754zm12.606 5.95c0-.703.136-1.32.408-1.853a3.185 3.185 0 011.173-1.275c.51-.306 1.105-.459 1.785-.459.691 0 1.286.153 1.785.459.499.306.884.731 1.156 1.275.272.533.408 1.15.408 1.853 0 .703-.142 1.326-.425 1.87a3.062 3.062 0 01-1.173 1.258c-.499.306-1.082.459-1.751.459-.68 0-1.275-.153-1.785-.459a3.213 3.213 0 01-1.173-1.258c-.272-.544-.408-1.167-.408-1.87zm-3.043 0c0 .918.153 1.762.459 2.533.317.77.759 1.44 1.326 2.006a6.22 6.22 0 002.04 1.326c.782.306 1.643.459 2.584.459.929 0 1.785-.153 2.567-.459a6.034 6.034 0 002.023-1.326 5.742 5.742 0 001.326-2.006c.317-.77.476-1.615.476-2.533 0-.918-.159-1.757-.476-2.516a5.802 5.802 0 00-1.343-1.972 5.922 5.922 0 00-2.04-1.275c-.771-.306-1.615-.459-2.533-.459-.907 0-1.751.153-2.533.459a5.922 5.922 0 00-2.04 1.275 6.022 6.022 0 00-1.36 1.972c-.317.76-.476 1.598-.476 2.516zm15.441.969h9.01v-2.584h-9.01v2.584zm7.191-6.919V18h2.873V6.1h-2.873zm-7.99 0V18h2.873V6.1h-2.873zm15.234 9.605h6.29l-.187-2.193h-5.899l-.204 2.193zm3.111-5.236l1.683 3.859-.102.731L189.245 18h3.264l-6.273-12.648L179.98 18h3.247l1.479-3.06-.136-.629 1.666-3.842zm8.421 2.431h3.91c.374 0 .691.051.952.153.261.102.459.255.595.459.136.193.204.448.204.765 0 .306-.068.561-.204.765a1.226 1.226 0 01-.595.459c-.261.09-.578.136-.952.136h-3.91V18h4.539c.771 0 1.456-.159 2.057-.476a3.67 3.67 0 001.445-1.309c.363-.567.544-1.213.544-1.938 0-.737-.181-1.377-.544-1.921a3.548 3.548 0 00-1.445-1.292c-.601-.317-1.286-.476-2.057-.476h-4.539V12.9zm-.799-6.8V18h2.924V8.463h5.559V6.1h-8.483zm21.792 0h-9.775v7.038c0 .363-.04.697-.119 1.003a2.247 2.247 0 01-.357.782 1.583 1.583 0 01-1.309.646V18c1.099 0 1.995-.181 2.686-.544a3.331 3.331 0 001.513-1.683c.329-.76.493-1.694.493-2.805V8.667h3.944V18h2.924V6.1zm3.409 6.919h5.746v-2.584h-5.746v2.584zM218.26 6.1V18h2.873V6.1h-2.873zm7.803 5.95c0-.703.142-1.32.425-1.853a3.185 3.185 0 011.173-1.275c.51-.306 1.099-.459 1.768-.459.703 0 1.303.153 1.802.459.499.306.884.731 1.156 1.275.272.533.408 1.15.408 1.853 0 .703-.142 1.326-.425 1.87a3.213 3.213 0 01-1.173 1.258c-.499.306-1.088.459-1.768.459-.669 0-1.258-.153-1.768-.459a3.213 3.213 0 01-1.173-1.258c-.283-.544-.425-1.167-.425-1.87zm-3.026 0c0 .918.153 1.762.459 2.533.317.77.759 1.44 1.326 2.006a6.22 6.22 0 002.04 1.326c.782.306 1.638.459 2.567.459.941 0 1.802-.153 2.584-.459a6.034 6.034 0 002.023-1.326 5.742 5.742 0 001.326-2.006c.317-.77.476-1.615.476-2.533 0-.918-.159-1.757-.476-2.516a5.802 5.802 0 00-1.343-1.972 5.922 5.922 0 00-2.04-1.275c-.771-.306-1.621-.459-2.55-.459-.895 0-1.734.153-2.516.459a5.922 5.922 0 00-2.04 1.275 6.022 6.022 0 00-1.36 1.972c-.317.76-.476 1.598-.476 2.516zm20.321-1.36l2.465 6.8h3.315l-5.78-11.985-5.797 11.985h3.315l2.482-6.8zm3.91 7.31v1.87h2.856v-4.335h-13.549v4.335h2.856V18h7.837zm6.78 0h6.001v-2.363h-6.001V18zm0-9.537h6.001V6.1h-6.001v2.363zm0 4.437h5.661v-2.312h-5.661V12.9zm-1.904-6.8V18h2.754V6.1h-2.754zm11.042 6.919h9.01v-2.584h-9.01v2.584zm7.191-6.919V18h2.873V6.1h-2.873zm-7.99 0V18h2.873V6.1h-2.873zm24.261 2.992l.085-3.587-10.897 9.503-.085 3.587 10.897-9.503zM278.505 6.1h-2.754v12.495l2.754-2.822V6.1zm8.228-.595l-2.771 2.924V18h2.771V5.505zM291.152 18h6.001v-2.363h-6.001V18zm0-9.537h6.001V6.1h-6.001v2.363zm0 4.437h5.661v-2.312h-5.661V12.9zm-1.904-6.8V18h2.754V6.1h-2.754zm13.303 5.831l3.247 4.964 3.264-4.964.714 6.069h3.026l-1.921-12.495-5.083 7.259-5.066-7.259L298.811 18h3.026l.714-6.069z" fill="#24272F"/><path d="M56.98 41V30.92h1.029v4.76l4.599-4.76h1.316l-4.697 4.865L64.309 41h-1.344l-4.956-5.04V41H56.98zm10.909.21c-.751 0-1.393-.17-1.925-.511a3.325 3.325 0 01-1.225-1.414c-.285-.602-.427-1.293-.427-2.072 0-.793.145-1.489.434-2.086a3.29 3.29 0 011.232-1.393c.537-.336 1.174-.504 1.911-.504.756 0 1.4.17 1.932.511a3.22 3.22 0 011.225 1.407c.285.597.427 1.286.427 2.065 0 .793-.142 1.491-.427 2.093a3.272 3.272 0 01-1.232 1.4c-.537.336-1.178.504-1.925.504zm0-.987c.84 0 1.465-.278 1.876-.833.41-.56.616-1.286.616-2.177 0-.915-.208-1.643-.623-2.184-.41-.541-1.034-.812-1.869-.812-.565 0-1.031.128-1.4.385a2.282 2.282 0 00-.819 1.057c-.177.448-.266.966-.266 1.554 0 .91.21 1.64.63 2.191.42.546 1.038.819 1.855.819zM73.01 41v-7.56h1.03v3.283h4.262V33.44h1.03V41h-1.03v-3.29H74.04V41h-1.03zm10.33 0v-6.608h-2.681v-.952h6.39v.952h-2.68V41h-1.03zm8.44.21c-.696 0-1.284-.175-1.765-.525-.48-.355-.844-.833-1.092-1.435-.247-.607-.37-1.286-.37-2.037 0-.765.123-1.447.37-2.044.252-.602.621-1.076 1.106-1.421.486-.345 1.083-.518 1.792-.518.691 0 1.284.175 1.778.525.495.35.873.826 1.134 1.428.266.602.4 1.279.4 2.03 0 .756-.134 1.435-.4 2.037a3.406 3.406 0 01-1.148 1.435c-.499.35-1.101.525-1.806.525zm-3.403 3.15V33.44h.924v5.691h.112v5.229h-1.036zm3.297-4.109c.528 0 .966-.133 1.316-.399.35-.266.612-.628.784-1.085.178-.462.266-.98.266-1.554 0-.57-.086-1.083-.259-1.54a2.36 2.36 0 00-.79-1.085c-.35-.266-.796-.399-1.338-.399-.527 0-.966.128-1.316.385-.345.257-.604.614-.777 1.071-.172.453-.259.975-.259 1.568 0 .583.087 1.106.26 1.568.172.457.433.817.783 1.078.35.261.794.392 1.33.392zm8.152.959c-.75 0-1.392-.17-1.924-.511a3.325 3.325 0 01-1.225-1.414c-.285-.602-.428-1.293-.428-2.072 0-.793.145-1.489.434-2.086a3.29 3.29 0 011.232-1.393c.537-.336 1.174-.504 1.911-.504.756 0 1.4.17 1.932.511.537.336.945.805 1.225 1.407.285.597.427 1.286.427 2.065 0 .793-.142 1.491-.427 2.093a3.265 3.265 0 01-1.232 1.4c-.536.336-1.178.504-1.925.504zm0-.987c.84 0 1.466-.278 1.876-.833.411-.56.616-1.286.616-2.177 0-.915-.207-1.643-.623-2.184-.41-.541-1.033-.812-1.868-.812-.565 0-1.032.128-1.4.385a2.282 2.282 0 00-.82 1.057c-.177.448-.266.966-.266 1.554 0 .91.21 1.64.63 2.191.42.546 1.039.819 1.855.819zm4.429.777v-.903c.28.051.492.04.637-.035a.713.713 0 00.329-.392c.07-.187.128-.418.175-.693.074-.457.142-.961.203-1.512.06-.55.114-1.157.161-1.82.051-.667.102-1.402.154-2.205h5.138V41h-1.022v-6.573h-3.164a78.392 78.392 0 01-.245 2.891c-.042.448-.089.861-.14 1.239-.052.378-.105.705-.161.98-.084.415-.196.747-.336.994a.988.988 0 01-.609.49c-.271.08-.644.072-1.12-.021zm8.759 0L113 33.44h1.036v2.849h1.771c.22 0 .434.005.644.014.215.01.404.028.567.056.374.07.705.194.994.371.294.177.523.422.686.735.168.313.252.705.252 1.176 0 .649-.168 1.16-.504 1.533a2.298 2.298 0 01-1.26.728c-.191.042-.399.07-.623.084-.224.01-.445.014-.665.014h-2.884zm1.022-.882h1.82c.159 0 .336-.005.532-.014a2.37 2.37 0 00.518-.077c.248-.07.472-.21.672-.42.206-.215.308-.537.308-.966 0-.425-.098-.744-.294-.959a1.414 1.414 0 00-.784-.434 2.83 2.83 0 00-.469-.063 8.752 8.752 0 00-.483-.014h-1.82v2.947zm11.976 1.092c-.761 0-1.426-.166-1.995-.497a3.614 3.614 0 01-1.337-1.393l.826-.525c.275.467.618.821 1.029 1.064.41.243.882.364 1.414.364.555 0 1.001-.128 1.337-.385.336-.257.504-.609.504-1.057 0-.308-.073-.553-.217-.735-.14-.182-.355-.313-.644-.392-.285-.08-.642-.119-1.071-.119h-.896v-.882h.882c.522 0 .942-.093 1.26-.28.322-.191.483-.49.483-.896 0-.43-.161-.747-.483-.952-.318-.21-.698-.315-1.141-.315-.448 0-.873.093-1.274.28a3.14 3.14 0 00-1.001.707l-.658-.693a3.77 3.77 0 011.323-.945 4.215 4.215 0 011.687-.329c.485 0 .924.086 1.316.259.396.168.709.415.938.742.233.327.35.719.35 1.176 0 .43-.105.8-.315 1.113a2.38 2.38 0 01-.875.777l-.056-.385c.326.06.597.191.812.392.214.2.373.441.476.721.102.28.154.565.154.854 0 .48-.126.896-.378 1.246a2.442 2.442 0 01-1.015.805c-.425.187-.903.28-1.435.28zm6.535 0c-.569 0-1.047-.103-1.435-.308a2.096 2.096 0 01-.861-.819 2.238 2.238 0 01-.287-1.113c0-.41.082-.76.245-1.05.168-.294.395-.534.679-.721a3.41 3.41 0 011.001-.427c.383-.093.805-.175 1.267-.245.467-.075.922-.138 1.365-.189.448-.056.84-.11 1.176-.161l-.364.224c.014-.747-.13-1.3-.434-1.659-.303-.36-.83-.539-1.582-.539-.518 0-.956.117-1.316.35-.354.233-.604.602-.749 1.106l-1.001-.294c.173-.677.521-1.202 1.043-1.575.523-.373 1.202-.56 2.037-.56.691 0 1.277.13 1.757.392.486.257.829.63 1.029 1.12.094.22.154.464.182.735.028.27.042.546.042.826V41h-.917v-1.897l.266.112c-.256.649-.655 1.143-1.197 1.484-.541.34-1.19.511-1.946.511zm.119-.889c.481 0 .901-.086 1.26-.259.36-.173.649-.408.868-.707a2.41 2.41 0 00.427-1.022c.056-.243.087-.509.091-.798.005-.294.007-.513.007-.658l.392.203c-.35.047-.73.093-1.141.14-.406.047-.807.1-1.204.161-.392.06-.746.133-1.064.217-.214.06-.422.147-.623.259-.2.107-.366.252-.497.434a1.165 1.165 0 00-.189.679c0 .22.054.432.161.637.112.205.29.376.532.511.248.135.574.203.98.203zm11.436.889c-.76 0-1.404-.17-1.932-.511a3.264 3.264 0 01-1.204-1.407c-.27-.602-.41-1.293-.42-2.072.01-.793.154-1.489.434-2.086a3.206 3.206 0 011.211-1.4c.528-.336 1.167-.504 1.918-.504.766 0 1.431.187 1.995.56.57.373.959.884 1.169 1.533l-1.008.322a2.124 2.124 0 00-.847-1.05 2.336 2.336 0 00-1.316-.378c-.555 0-1.015.128-1.379.385a2.244 2.244 0 00-.812 1.057c-.177.453-.268.973-.273 1.561.01.905.22 1.633.63 2.184.411.546 1.022.819 1.834.819.514 0 .95-.117 1.309-.35.364-.238.64-.583.826-1.036l1.036.308c-.28.672-.69 1.185-1.232 1.54-.541.35-1.187.525-1.939.525zm6.49-.21v-6.608h-2.681v-.952h6.391v.952h-2.681V41h-1.029zm8.439.21c-.695 0-1.283-.175-1.764-.525-.48-.355-.844-.833-1.092-1.435-.247-.607-.371-1.286-.371-2.037 0-.765.124-1.447.371-2.044.252-.602.621-1.076 1.106-1.421.486-.345 1.083-.518 1.792-.518.691 0 1.284.175 1.778.525.495.35.873.826 1.134 1.428.266.602.399 1.279.399 2.03 0 .756-.133 1.435-.399 2.037a3.4 3.4 0 01-1.148 1.435c-.499.35-1.101.525-1.806.525zm-3.402 3.15V33.44h.924v5.691h.112v5.229h-1.036zm3.297-4.109c.528 0 .966-.133 1.316-.399.35-.266.612-.628.784-1.085.178-.462.266-.98.266-1.554 0-.57-.086-1.083-.259-1.54a2.354 2.354 0 00-.791-1.085c-.35-.266-.795-.399-1.337-.399-.527 0-.966.128-1.316.385-.345.257-.604.614-.777 1.071-.172.453-.259.975-.259 1.568 0 .583.087 1.106.259 1.568.173.457.434.817.784 1.078.35.261.794.392 1.33.392zm8.152.959c-.751 0-1.393-.17-1.925-.511a3.327 3.327 0 01-1.225-1.414c-.284-.602-.427-1.293-.427-2.072 0-.793.145-1.489.434-2.086a3.29 3.29 0 011.232-1.393c.537-.336 1.174-.504 1.911-.504.756 0 1.4.17 1.932.511.537.336.945.805 1.225 1.407.285.597.427 1.286.427 2.065 0 .793-.142 1.491-.427 2.093a3.265 3.265 0 01-1.232 1.4c-.536.336-1.178.504-1.925.504zm0-.987c.84 0 1.466-.278 1.876-.833.411-.56.616-1.286.616-2.177 0-.915-.207-1.643-.623-2.184-.41-.541-1.033-.812-1.869-.812-.564 0-1.031.128-1.4.385a2.282 2.282 0 00-.819 1.057c-.177.448-.266.966-.266 1.554 0 .91.21 1.64.63 2.191.42.546 1.039.819 1.855.819zm8.265-7.679c-.332 0-.635-.082-.91-.245a1.862 1.862 0 01-.658-.651 1.787 1.787 0 01-.238-.91h.854c0 .261.093.485.28.672.186.187.41.28.672.28a.9.9 0 00.672-.28.92.92 0 00.28-.672h.854c0 .331-.082.635-.245.91-.159.27-.376.488-.651.651a1.753 1.753 0 01-.91.245zm2.87.896V41h-1.001v-5.887L173.068 41h-.868v-7.56h1.001v5.838l4.151-5.838h.861zM180.17 41l.007-7.56h1.036v3.64l3.374-3.64h1.372l-3.542 3.78 4.004 3.78h-1.498l-3.71-3.64V41h-1.043zm9.973.21c-.751 0-1.393-.17-1.925-.511a3.327 3.327 0 01-1.225-1.414c-.285-.602-.427-1.293-.427-2.072 0-.793.145-1.489.434-2.086.289-.597.7-1.062 1.232-1.393.537-.336 1.174-.504 1.911-.504.756 0 1.4.17 1.932.511.537.336.945.805 1.225 1.407.285.597.427 1.286.427 2.065 0 .793-.142 1.491-.427 2.093a3.272 3.272 0 01-1.232 1.4c-.537.336-1.178.504-1.925.504zm0-.987c.84 0 1.465-.278 1.876-.833.411-.56.616-1.286.616-2.177 0-.915-.208-1.643-.623-2.184-.411-.541-1.034-.812-1.869-.812-.565 0-1.031.128-1.4.385a2.282 2.282 0 00-.819 1.057c-.177.448-.266.966-.266 1.554 0 .91.21 1.64.63 2.191.42.546 1.038.819 1.855.819zm8.264-7.679a1.75 1.75 0 01-.91-.245 1.87 1.87 0 01-.658-.651 1.787 1.787 0 01-.238-.91h.854c0 .261.093.485.28.672.187.187.411.28.672.28a.9.9 0 00.672-.28.915.915 0 00.28-.672h.854c0 .331-.082.635-.245.91-.159.27-.376.488-.651.651a1.75 1.75 0 01-.91.245zm2.87.896V41h-1.001v-5.887L196.132 41h-.868v-7.56h1.001v5.838l4.151-5.838h.861zm4.487 7.553l.007-.938 4.557-4.116c.392-.355.651-.69.777-1.008a2.65 2.65 0 00.196-1.008 2.195 2.195 0 00-1.085-1.925 2.104 2.104 0 00-1.113-.301 2.16 2.16 0 00-1.148.308 2.292 2.292 0 00-.798.812 2.14 2.14 0 00-.28 1.099h-1.05c0-.611.145-1.16.434-1.645.29-.485.682-.866 1.176-1.141a3.352 3.352 0 011.68-.42c.612 0 1.16.145 1.645.434.49.285.875.672 1.155 1.162.285.485.427 1.027.427 1.624 0 .42-.051.791-.154 1.113a2.759 2.759 0 01-.469.889c-.21.27-.478.55-.805.84l-4.046 3.654-.161-.42h5.635v.987h-6.58zm12.429.007v-1.953h-4.718v-.98l3.374-7.147h1.155l-3.374 7.147h3.563v-2.94h1.036v2.94h1.099v.98h-1.099V41h-1.036zm6.368-10.08h1.057L222.93 41h-1.057l2.688-10.08zM227.98 41l3.71-9.079h-4.669V30.92h5.768v1.001L229.086 41h-1.106z" fill="#595E69"/></svg>