<svg width="70" height="86" fill="none" xmlns="http://www.w3.org/2000/svg"><g filter="url(#filter0_d_252_1457)"><g filter="url(#filter1_d_252_1457)"><path fill-rule="evenodd" clip-rule="evenodd" d="M60 6a6 6 0 00-6-6H16a6 6 0 00-6 6v38.87a6 6 0 006 6h8.639a6 6 0 011.763.264l15.467 4.755a2.52 2.52 0 002.876-1.08l.715-1.136a6 6 0 015.078-2.803H54a6 6 0 006-6V6z" fill="#24D776"/></g><path d="M40.805 19.57c.625 0 1.133-.49 1.133-1.095s-.508-1.095-1.133-1.095c-.626 0-1.133.49-1.133 1.095s.507 1.095 1.133 1.095zm-4.532 0c.626 0 1.133-.49 1.133-1.095s-.507-1.095-1.133-1.095c-.625 0-1.132.49-1.132 1.095s.507 1.095 1.132 1.095zm-2.265 9.48c-.626 0-1.133.49-1.133 1.095v2.19c0 .603-.508 1.095-1.133 1.095h-7.476v-3.285c0-.605-.507-1.096-1.133-1.096S22 29.54 22 30.145v8.76c0 .605.507 1.095 1.133 1.095s1.133-.49 1.133-1.095V35.62h7.476c1.874 0 3.399-1.474 3.399-3.285v-2.19c0-.605-.508-1.096-1.133-1.096z" fill="#fff"/><path d="M49.867 17.38h-3.203c.467-1.274 1.726-2.19 3.203-2.19.626 0 1.133-.49 1.133-1.095S50.493 13 49.867 13H25.398C23.525 13 22 14.474 22 16.285v6.57c0 1.812 1.524 3.286 3.398 3.286H43.07c1.477 0 2.736-.916 3.204-2.19h3.593c.626 0 1.133-.49 1.133-1.096v-4.38c0-.605-.507-1.095-1.133-1.095zm-6.797 6.57H25.398c-.624 0-1.132-.49-1.132-1.095v-6.57c0-.604.508-1.095 1.132-1.095h19.94a5.33 5.33 0 00-1.135 3.285v4.38c0 .604-.508 1.096-1.133 1.096zm5.664-2.19H46.47v-2.19h2.265v2.19z" fill="#fff"/></g><defs><filter id="filter0_d_252_1457" x="0" y="0" width="70" height="76" filterUnits="userSpaceOnUse" color-interpolation-filters="sRGB"><feFlood flood-opacity="0" result="BackgroundImageFix"/><feColorMatrix in="SourceAlpha" values="0 0 0 0 0 0 0 0 0 0 0 0 0 0 0 0 0 0 127 0" result="hardAlpha"/><feOffset dy="10"/><feGaussianBlur stdDeviation="5"/><feComposite in2="hardAlpha" operator="out"/><feColorMatrix values="0 0 0 0 0.101823 0 0 0 0 0.479167 0 0 0 0 0.209635 0 0 0 0.15 0"/><feBlend in2="BackgroundImageFix" result="effect1_dropShadow_252_1457"/><feBlend in="SourceGraphic" in2="effect1_dropShadow_252_1457" result="shape"/></filter><filter id="filter1_d_252_1457" x="0" y="0" width="70" height="86" filterUnits="userSpaceOnUse" color-interpolation-filters="sRGB"><feFlood flood-opacity="0" result="BackgroundImageFix"/><feColorMatrix in="SourceAlpha" values="0 0 0 0 0 0 0 0 0 0 0 0 0 0 0 0 0 0 127 0" result="hardAlpha"/><feMorphology radius="10" in="SourceAlpha" result="effect1_dropShadow_252_1457"/><feOffset dy="20"/><feGaussianBlur stdDeviation="10"/><feComposite in2="hardAlpha" operator="out"/><feColorMatrix values="0 0 0 0 0.0811459 0 0 0 0 0.5125 0 0 0 0 0.278749 0 0 0 0.2 0"/><feBlend in2="BackgroundImageFix" result="effect1_dropShadow_252_1457"/><feBlend in="SourceGraphic" in2="effect1_dropShadow_252_1457" result="shape"/></filter></defs></svg>