<svg width="84" height="84" fill="none" xmlns="http://www.w3.org/2000/svg"><path d="M73.58 48.03a2.5 2.5 0 00-3.466-.691l-9.142 6.079a7.179 7.179 0 00-6.693-1.139L46.5 41.933h10a2.5 2.5 0 001.768-.73A2.49 2.49 0 0059 39.44V19.493a2.49 2.49 0 00-.732-1.763A2.503 2.503 0 0056.5 17h-30c-.663 0-1.299.263-1.768.73A2.49 2.49 0 0024 19.493v1.529l-11.709-3.893a2.505 2.505 0 00-3.017 1.228c-.18.352-.274.741-.274 1.136V39.44c0 .661.263 1.296.732 1.763a2.503 2.503 0 002.559.601l5-1.663a2.501 2.501 0 001.765-2.192 2.487 2.487 0 00-1.405-2.438 2.504 2.504 0 00-1.942-.098L14 35.98V22.953l10 3.323V39.44a2.493 2.493 0 002.5 2.493h13.751l10.011 13.312a7.496 7.496 0 001.529 10.127 7.538 7.538 0 007.118 1.224 7.53 7.53 0 003.118-2.036 7.502 7.502 0 001.722-6.996l9.138-6.077a2.493 2.493 0 00.693-3.457zM29 21.987h25v14.96H29v-14.96zM56.5 61.88a2.506 2.506 0 01-2.31-1.54 2.486 2.486 0 01.543-2.716A2.502 2.502 0 0159 59.387c0 .66-.264 1.295-.733 1.762a2.506 2.506 0 01-1.767.731z" fill="#24D776"/></svg>