<svg width="84" height="84" fill="none" xmlns="http://www.w3.org/2000/svg"><path d="M78.507 15.96h-7.479a2.5 2.5 0 00-1.77.72l-4.237 4.24H62.83v-2.48c0-4.109-3.349-7.44-7.48-7.44H10.48C6.349 11 3 14.331 3 18.44v39.68c0 4.11 3.348 7.44 7.479 7.44h2.493V60.6h-2.493a2.486 2.486 0 01-2.493-2.48V18.44c0-1.37 1.116-2.48 2.493-2.48H55.35a2.486 2.486 0 012.493 2.48v24.8h4.986V25.88h3.213a2.5 2.5 0 001.77-.72l4.237-4.24h3.964v34.72H72.05l-4.263-4.24-3.515 3.496 4.986 4.96a2.499 2.499 0 001.77.744h7.478A2.486 2.486 0 0081 58.12V18.44c0-1.37-1.116-2.48-2.493-2.48z" fill="#24D776"/><path d="M47.872 35.8a2.486 2.486 0 002.493-2.48V23.4c0-1.37-1.116-2.48-2.493-2.48H17.957a2.486 2.486 0 00-2.493 2.48v9.92c0 1.37 1.117 2.48 2.493 2.48h29.915zm2.493 12.4H45.38c-2.753 0-4.985 2.22-4.985 4.96v14.88c0 2.74 2.232 4.96 4.985 4.96h4.986c5.507 0 9.972-4.441 9.972-9.92v-4.96c0-5.479-4.465-9.92-9.972-9.92zm4.986 14.88c0 2.74-2.232 4.96-4.986 4.96H45.38V53.16h4.986c2.754 0 4.986 2.22 4.986 4.96v4.96zm-22.436-4.96h-9.972V48.2h-4.986V73h4.986v-9.92h9.972V73H37.9V48.2h-4.986v9.92z" fill="#24D776"/></svg>