<svg width="84" height="84" fill="none" xmlns="http://www.w3.org/2000/svg"><path d="M41.5 53.94c3.89 0 7.054-3.18 7.054-7.087 0-3.907-3.164-7.086-7.054-7.086s-7.053 3.179-7.053 7.086c0 3.908 3.164 7.087 7.053 7.087zm0-10.072a2.978 2.978 0 012.971 2.985 2.978 2.978 0 01-2.97 2.985 2.978 2.978 0 01-2.972-2.985 2.978 2.978 0 012.971-2.985z" fill="#24D776"/><path d="M41.5 23.357c-7.631 0-14.752 3.42-19.537 9.383l-1.281 1.597 9.534 7.72 1.281-1.593A12.778 12.778 0 0141.5 35.662c3.905 0 7.55 1.75 10.003 4.802l1.282 1.594 9.534-7.721-1.282-1.597c-4.784-5.963-11.905-9.383-19.537-9.383zm-15 10.423a20.86 20.86 0 0115-6.321 20.86 20.86 0 0115.001 6.32l-3.197 2.59A16.813 16.813 0 0041.5 31.56a16.813 16.813 0 00-11.803 4.81l-3.198-2.59z" fill="#24D776"/><path d="M73.715 22.47a41.452 41.452 0 00-12.078-10.225 41.285 41.285 0 00-40.274 0A41.456 41.456 0 009.286 22.469L8 24.066l9.535 7.722 1.281-1.596c5.553-6.92 13.82-10.887 22.684-10.887s17.132 3.968 22.684 10.887l1.281 1.596L75 24.067l-1.285-1.598zm-59.927 1.016a37.303 37.303 0 019.564-7.659A37.206 37.206 0 0141.5 11.102c6.355 0 12.63 1.634 18.149 4.725a37.294 37.294 0 019.563 7.66l-3.179 2.573C59.75 19.135 50.92 15.203 41.5 15.203c-9.42 0-18.25 3.932-24.533 10.857l-3.179-2.574zM50.25 69.024h4.966c-.516 2.062-1.891 3.874-4.567 3.874-3.252 0-5.898-2.658-5.898-5.925s2.646-5.925 5.898-5.925c1.182 0 2.322.35 3.296 1.01l2.285-3.398a9.9 9.9 0 00-5.581-1.714c-5.503 0-9.98 4.498-9.98 10.027 0 5.529 4.477 10.027 9.98 10.027 5.237 0 8.895-4.123 8.895-10.027v-2.05H50.25v4.1zM35.729 56.946h-5.052l-7.219 12.216-.003 3.8h8.191v4.03h4.083v-4.03h2.087V68.86h-2.087V56.947zm-4.083 11.915h-3.262l3.262-5.52v5.52z" fill="#24D776"/></svg>