<svg width="84" height="84" fill="none" xmlns="http://www.w3.org/2000/svg"><path d="M75.605 32.116c-.867-2.56-2.948-4.175-4.785-5.6-.981-.76-1.908-1.48-2.444-2.184-.546-.72-.977-1.793-1.433-2.93-.844-2.104-1.803-4.486-4.022-6.034-2.17-1.517-4.788-1.658-7.097-1.78-1.298-.07-2.524-.135-3.457-.427-.856-.265-1.844-.882-2.89-1.536C47.508 10.395 45.273 9 42.5 9c-2.775 0-5.007 1.395-6.976 2.625-1.047.654-2.034 1.27-2.89 1.537-.933.29-2.16.356-3.46.426-2.307.124-4.923.263-7.097 1.78-2.217 1.548-3.174 3.93-4.02 6.032-.456 1.138-.889 2.213-1.436 2.934-.536.707-1.463 1.425-2.445 2.186-1.833 1.424-3.914 3.037-4.78 5.595-.842 2.487-.166 4.943.431 7.109.333 1.206.647 2.344.647 3.276 0 .934-.314 2.071-.647 3.279-.597 2.165-1.272 4.62-.43 7.109.866 2.558 2.946 4.17 4.781 5.594.982.761 1.909 1.48 2.444 2.184.546.72.978 1.794 1.435 2.933.844 2.104 1.805 4.487 4.024 6.037 2.172 1.515 4.786 1.654 7.094 1.776 1.299.07 2.526.135 3.458.426.856.266 1.843.883 2.887 1.536C37.49 74.606 39.725 76 42.5 76c2.774 0 5.01-1.394 6.981-2.626 1.046-.653 2.033-1.268 2.888-1.536.932-.29 2.16-.357 3.459-.426 2.307-.123 4.922-.263 7.094-1.777 2.22-1.55 3.178-3.935 4.025-6.04.456-1.136.887-2.211 1.43-2.927.536-.706 1.463-1.425 2.444-2.185 1.836-1.423 3.918-3.037 4.785-5.595.843-2.49.165-4.944-.433-7.111-.333-1.206-.648-2.346-.648-3.278 0-.933.315-2.072.648-3.278.598-2.163 1.274-4.62.433-7.105zM69.79 47.263c.402 1.46.82 2.97.527 3.834-.327.967-1.643 1.988-2.917 2.974-1.224.95-2.488 1.93-3.47 3.224-.997 1.313-1.592 2.791-2.165 4.22-.61 1.514-1.185 2.944-2.04 3.541-.863.605-2.481.69-4.195.782-1.586.085-3.225.172-4.822.67-1.542.48-2.884 1.318-4.184 2.13-1.465.914-2.849 1.779-4.025 1.779-1.175 0-2.559-.865-4.023-1.777-1.3-.811-2.642-1.652-4.184-2.13-1.598-.499-3.236-.587-4.821-.67-1.714-.091-3.332-.178-4.194-.78-.856-.598-1.43-2.029-2.04-3.543-.576-1.428-1.171-2.908-2.17-4.222-.98-1.293-2.244-2.275-3.468-3.224-1.272-.985-2.588-2.007-2.915-2.973-.293-.865.123-2.375.525-3.837.396-1.44.846-3.072.846-4.76 0-1.687-.45-3.319-.846-4.76-.402-1.46-.818-2.968-.525-3.835.327-.966 1.642-1.986 2.913-2.972 1.224-.95 2.491-1.933 3.47-3.225.999-1.316 1.595-2.795 2.17-4.224.61-1.514 1.184-2.943 2.036-3.538.866-.606 2.485-.692 4.2-.784 1.583-.085 3.22-.173 4.818-.669 1.543-.48 2.887-1.32 4.188-2.131 1.464-.918 2.846-1.78 4.02-1.78 1.175 0 2.557.862 4.022 1.777 1.301.813 2.645 1.653 4.188 2.13 1.598.497 3.234.586 4.818.67 1.714.09 3.333.177 4.198.785.855.596 1.428 2.024 2.036 3.537.576 1.429 1.17 2.909 2.17 4.225.981 1.29 2.245 2.272 3.47 3.221 1.271.986 2.587 2.008 2.916 2.976.293.864-.125 2.373-.526 3.833-.398 1.441-.85 3.074-.85 4.763s.451 3.322.85 4.763z" fill="#24D776"/><path d="M55.06 42.5c0 6.927-5.634 12.563-12.561 12.563S29.937 49.426 29.937 42.5c0-6.927 5.635-12.563 12.562-12.563h2.791v-5.583H42.5c-10.005 0-18.145 8.14-18.145 18.146 0 10.005 8.14 18.146 18.145 18.146 10.005 0 18.145-8.14 18.145-18.146v-2.792H55.06V42.5z" fill="#24D776"/><path d="M39.707 35.76l-3.947 3.948 6.739 6.739 15.113-15.114-3.947-3.947-11.166 11.166-2.792-2.791z" fill="#24D776"/></svg>