<svg width="84" height="84" fill="none" xmlns="http://www.w3.org/2000/svg"><path d="M66.186 78a2.815 2.815 0 01-2.813-2.817c0-6.96-3.649-13.505-9.426-17.135v7.557c-.139 3.734-5.49 3.73-5.628 0v-1.728a8.318 8.318 0 01-2.737.46h-8.313c-.958 0-1.88-.162-2.737-.46v1.728c-.138 3.734-5.49 3.73-5.628 0V58.06c-4.61 2.915-8.084 7.6-9.238 12.581-.133.574.111.993.269 1.191.158.2.512.534 1.103.534h33.894c3.729.138 3.726 5.497 0 5.634H21.038a6.997 6.997 0 01-5.51-2.663 7.009 7.009 0 01-1.344-5.97c1.643-7.086 6.885-13.677 13.68-17.199l.021-.01c1.645-.836 3.346-.85 4.668-.037 1.248.767 1.968 2.156 1.979 3.815a2.743 2.743 0 002.737 2.767h8.313a2.743 2.743 0 002.737-2.767c.011-1.659.73-3.048 1.98-3.815 1.32-.812 3.021-.8 4.667.037 4.148 2.107 7.656 5.344 10.145 9.361A25.926 25.926 0 0169 75.183 2.815 2.815 0 0166.186 78zm-4.783-49.3H21.73c-3.73-.138-3.726-5.496 0-5.633h.551C25.104.303 57.403.319 60.22 23.067h1.184c3.73.138 3.726 5.497 0 5.634zm-33.455-5.633H54.55c-2.485-15.304-24.123-15.293-26.603 0zm31.197 12.787a2.813 2.813 0 10-5.294-1.91c-4.3 11.734-20.933 11.728-25.241-.157A2.813 2.813 0 0025 32.113a2.818 2.818 0 00-1.673 3.614c2.781 7.592 9.963 12.693 17.87 12.693 8.03 0 15.241-5.05 17.947-12.566z" fill="#24D776"/></svg>