<svg width="64" height="64" viewBox="0 0 64 64" fill="none" xmlns="http://www.w3.org/2000/svg">
<path d="M36.7841 18.1873C38.0079 18.1873 39 17.21 39 16.0045C39 14.7991 38.0079 13.8218 36.7841 13.8218C35.5603 13.8218 34.5682 14.7991 34.5682 16.0045C34.5682 17.21 35.5603 18.1873 36.7841 18.1873Z" fill="#24D776"/>
<path d="M27.9205 18.1873C29.1443 18.1873 30.1364 17.21 30.1364 16.0045C30.1364 14.7991 29.1443 13.8218 27.9205 13.8218C26.6966 13.8218 25.7045 14.7991 25.7045 16.0045C25.7045 17.21 26.6966 18.1873 27.9205 18.1873Z" fill="#24D776"/>
<path d="M23.4886 37.0818C22.2648 37.0818 21.2727 38.059 21.2727 39.2646V43.63C21.2727 44.8336 20.2787 45.8127 19.0568 45.8127H4.43182V39.2646C4.43182 38.059 3.43976 37.0818 2.21591 37.0818C0.992063 37.0818 0 38.059 0 39.2646V56.7264C0 57.9319 0.992063 58.9091 2.21591 58.9091C3.43976 58.9091 4.43182 57.9319 4.43182 56.7264V50.1782H19.0568C22.7224 50.1782 25.7045 47.2407 25.7045 43.63V39.2646C25.7045 38.059 24.7125 37.0818 23.4886 37.0818Z" fill="white"/>
<path d="M54.5114 13.8218H48.2448C49.1595 11.2813 51.6226 9.45636 54.5114 9.45636C55.7352 9.45636 56.7273 8.47916 56.7273 7.27364C56.7273 6.06812 55.7352 5.09091 54.5114 5.09091H6.64773C2.98217 5.09091 0 8.02842 0 11.6391V24.7354C0 28.3461 2.98217 31.2836 6.64773 31.2836H41.2159C44.1047 31.2836 46.5677 29.4586 47.4825 26.9182H54.5114C55.7352 26.9182 56.7273 25.941 56.7273 24.7354V16.0045C56.7273 14.799 55.7352 13.8218 54.5114 13.8218ZM41.2159 26.9182H6.64773C5.42588 26.9182 4.43182 25.939 4.43182 24.7354V11.6391C4.43182 10.4355 5.42588 9.45636 6.64773 9.45636H45.6529C44.2591 11.2816 43.4318 13.5498 43.4318 16.0045V24.7354C43.4318 25.939 42.4378 26.9182 41.2159 26.9182ZM52.2955 22.5527H47.8636V18.1873H52.2955V22.5527Z" fill="white"/>
</svg>
