<svg width="315" height="45" viewBox="0 0 315 45" fill="none" xmlns="http://www.w3.org/2000/svg">
<path d="M25.2891 13.0037C26.1304 13.0037 26.8125 12.3319 26.8125 11.5031C26.8125 10.6743 26.1304 10.0025 25.2891 10.0025C24.4477 10.0025 23.7656 10.6743 23.7656 11.5031C23.7656 12.3319 24.4477 13.0037 25.2891 13.0037Z" fill="#24D776"/>
<path d="M19.1953 13.0037C20.0367 13.0037 20.7188 12.3319 20.7188 11.5031C20.7188 10.6743 20.0367 10.0025 19.1953 10.0025C18.3539 10.0025 17.6719 10.6743 17.6719 11.5031C17.6719 12.3319 18.3539 13.0037 19.1953 13.0037Z" fill="#24D776"/>
<path d="M16.1484 25.9938C15.307 25.9938 14.625 26.6656 14.625 27.4944V30.4956C14.625 31.3231 13.9416 31.9963 13.1016 31.9963H3.04688V27.4944C3.04688 26.6656 2.36483 25.9938 1.52344 25.9938C0.682043 25.9938 0 26.6656 0 27.4944V39.4994C0 40.3282 0.682043 41 1.52344 41C2.36483 41 3.04688 40.3282 3.04688 39.4994V34.9975H13.1016C15.6216 34.9975 17.6719 32.978 17.6719 30.4956V27.4944C17.6719 26.6656 16.9898 25.9938 16.1484 25.9938Z" fill="#346DFF"/>
<path d="M37.4766 10.0025H33.1683C33.7972 8.25592 35.4905 7.00125 37.4766 7.00125C38.318 7.00125 39 6.32942 39 5.50062C39 4.67183 38.318 4 37.4766 4H4.57031C2.05024 4 0 6.01954 0 8.50187V17.5056C0 19.9879 2.05024 22.0075 4.57031 22.0075H28.3359C30.322 22.0075 32.0153 20.7528 32.6442 19.0062H37.4766C38.318 19.0062 39 18.3344 39 17.5056V11.5031C39 10.6743 38.318 10.0025 37.4766 10.0025ZM28.3359 19.0062H4.57031C3.73029 19.0062 3.04688 18.3331 3.04688 17.5056V8.50187C3.04688 7.67443 3.73029 7.00125 4.57031 7.00125H31.3864C30.4281 8.25607 29.8594 9.81552 29.8594 11.5031V17.5056C29.8594 18.3331 29.176 19.0062 28.3359 19.0062ZM35.9531 16.005H32.9062V13.0037H35.9531V16.005Z" fill="#346DFF"/>
<path d="M64.823 8.667V18H67.747V6.1H57.36V18H60.284V8.667H64.823ZM72.7362 12.05C72.7362 11.3473 72.8722 10.7297 73.1442 10.197C73.4276 9.653 73.8186 9.228 74.3172 8.922C74.8272 8.616 75.4222 8.463 76.1022 8.463C76.7936 8.463 77.3886 8.616 77.8872 8.922C78.3859 9.228 78.7712 9.653 79.0432 10.197C79.3152 10.7297 79.4512 11.3473 79.4512 12.05C79.4512 12.7527 79.3096 13.376 79.0262 13.92C78.7542 14.4527 78.3632 14.872 77.8532 15.178C77.3546 15.484 76.7709 15.637 76.1022 15.637C75.4222 15.637 74.8272 15.484 74.3172 15.178C73.8186 14.872 73.4276 14.4527 73.1442 13.92C72.8722 13.376 72.7362 12.7527 72.7362 12.05ZM69.6932 12.05C69.6932 12.968 69.8462 13.8123 70.1522 14.583C70.4696 15.3537 70.9116 16.0223 71.4782 16.589C72.0562 17.1557 72.7362 17.5977 73.5182 17.915C74.3002 18.221 75.1616 18.374 76.1022 18.374C77.0316 18.374 77.8872 18.221 78.6692 17.915C79.4512 17.5977 80.1256 17.1557 80.6922 16.589C81.2702 16.0223 81.7122 15.3537 82.0182 14.583C82.3356 13.8123 82.4942 12.968 82.4942 12.05C82.4942 11.132 82.3356 10.2933 82.0182 9.534C81.7009 8.77467 81.2532 8.11733 80.6752 7.562C80.0972 7.00667 79.4172 6.58167 78.6352 6.287C77.8646 5.981 77.0202 5.828 76.1022 5.828C75.1956 5.828 74.3512 5.981 73.5692 6.287C72.7872 6.58167 72.1072 7.00667 71.5292 7.562C70.9512 8.11733 70.4979 8.77467 70.1692 9.534C69.8519 10.2933 69.6932 11.132 69.6932 12.05ZM90.0255 10.69L92.4905 17.49H95.8055L90.0255 5.505L84.2285 17.49H87.5435L90.0255 10.69ZM93.9355 18V19.87H96.7915V15.535H83.2425V19.87H86.0985V18H93.9355ZM106.05 12.084H108.277C109.105 12.084 109.83 11.9707 110.453 11.744C111.088 11.506 111.587 11.166 111.949 10.724C112.323 10.282 112.51 9.74933 112.51 9.126C112.51 8.446 112.323 7.885 111.949 7.443C111.587 6.98967 111.088 6.65533 110.453 6.44C109.83 6.21333 109.105 6.1 108.277 6.1H103.908V18H108.566C109.507 18 110.323 17.8867 111.014 17.66C111.706 17.422 112.238 17.0593 112.612 16.572C112.998 16.0847 113.19 15.4443 113.19 14.651C113.19 14.0503 113.054 13.5403 112.782 13.121C112.522 12.6903 112.17 12.339 111.728 12.067C111.286 11.7837 110.793 11.5797 110.249 11.455C109.705 11.3303 109.144 11.268 108.566 11.268H106.05V12.832H108.243C108.527 12.832 108.782 12.8603 109.008 12.917C109.246 12.9623 109.456 13.0417 109.637 13.155C109.819 13.2683 109.96 13.4157 110.062 13.597C110.164 13.7783 110.215 13.9937 110.215 14.243C110.215 14.6283 110.125 14.9343 109.943 15.161C109.773 15.3763 109.541 15.535 109.246 15.637C108.952 15.7277 108.617 15.773 108.243 15.773H106.781V8.327H107.971C108.47 8.327 108.855 8.429 109.127 8.633C109.399 8.837 109.535 9.143 109.535 9.551C109.535 9.823 109.473 10.0553 109.348 10.248C109.224 10.4293 109.042 10.571 108.804 10.673C108.578 10.775 108.3 10.826 107.971 10.826H106.05V12.084ZM126.094 9.092L126.179 5.505L115.282 15.008L115.197 18.595L126.094 9.092ZM117.951 6.1H115.197V18.595L117.951 15.773V6.1ZM126.179 5.505L123.408 8.429V18H126.179V5.505ZM134.9 10.69L137.365 17.49H140.68L134.9 5.505L129.103 17.49H132.418L134.9 10.69ZM138.81 18V19.87H141.666V15.535H128.117V19.87H130.973V18H138.81ZM145.59 18H151.591V15.637H145.59V18ZM145.59 8.463H151.591V6.1H145.59V8.463ZM145.59 12.9H151.251V10.588H145.59V12.9ZM143.686 6.1V18H146.44V6.1H143.686ZM156.292 12.05C156.292 11.3473 156.428 10.7297 156.7 10.197C156.983 9.653 157.374 9.228 157.873 8.922C158.383 8.616 158.978 8.463 159.658 8.463C160.349 8.463 160.944 8.616 161.443 8.922C161.942 9.228 162.327 9.653 162.599 10.197C162.871 10.7297 163.007 11.3473 163.007 12.05C163.007 12.7527 162.865 13.376 162.582 13.92C162.31 14.4527 161.919 14.872 161.409 15.178C160.91 15.484 160.327 15.637 159.658 15.637C158.978 15.637 158.383 15.484 157.873 15.178C157.374 14.872 156.983 14.4527 156.7 13.92C156.428 13.376 156.292 12.7527 156.292 12.05ZM153.249 12.05C153.249 12.968 153.402 13.8123 153.708 14.583C154.025 15.3537 154.467 16.0223 155.034 16.589C155.612 17.1557 156.292 17.5977 157.074 17.915C157.856 18.221 158.717 18.374 159.658 18.374C160.587 18.374 161.443 18.221 162.225 17.915C163.007 17.5977 163.681 17.1557 164.248 16.589C164.826 16.0223 165.268 15.3537 165.574 14.583C165.891 13.8123 166.05 12.968 166.05 12.05C166.05 11.132 165.891 10.2933 165.574 9.534C165.257 8.77467 164.809 8.11733 164.231 7.562C163.653 7.00667 162.973 6.58167 162.191 6.287C161.42 5.981 160.576 5.828 159.658 5.828C158.751 5.828 157.907 5.981 157.125 6.287C156.343 6.58167 155.663 7.00667 155.085 7.562C154.507 8.11733 154.054 8.77467 153.725 9.534C153.408 10.2933 153.249 11.132 153.249 12.05ZM168.69 13.019H177.7V10.435H168.69V13.019ZM175.881 6.1V18H178.754V6.1H175.881ZM167.891 6.1V18H170.764V6.1H167.891ZM183.125 15.705H189.415L189.228 13.512H183.329L183.125 15.705ZM186.236 10.469L187.919 14.328L187.817 15.059L189.245 18H192.509L186.236 5.352L179.98 18H183.227L184.706 14.94L184.57 14.311L186.236 10.469ZM194.657 12.9H198.567C198.941 12.9 199.258 12.951 199.519 13.053C199.78 13.155 199.978 13.308 200.114 13.512C200.25 13.7047 200.318 13.9597 200.318 14.277C200.318 14.583 200.25 14.838 200.114 15.042C199.978 15.246 199.78 15.399 199.519 15.501C199.258 15.5917 198.941 15.637 198.567 15.637H194.657V18H199.196C199.967 18 200.652 17.8413 201.253 17.524C201.865 17.2067 202.347 16.7703 202.698 16.215C203.061 15.6483 203.242 15.0023 203.242 14.277C203.242 13.5403 203.061 12.9 202.698 12.356C202.347 11.8007 201.865 11.37 201.253 11.064C200.652 10.7467 199.967 10.588 199.196 10.588H194.657V12.9ZM193.858 6.1V18H196.782V8.463H202.341V6.1H193.858ZM215.65 6.1H205.875V13.138C205.875 13.5007 205.835 13.835 205.756 14.141C205.677 14.447 205.558 14.7077 205.399 14.923C205.252 15.127 205.065 15.2857 204.838 15.399C204.623 15.5123 204.373 15.569 204.09 15.569V18C205.189 18 206.085 17.8187 206.776 17.456C207.467 17.082 207.972 16.521 208.289 15.773C208.618 15.0137 208.782 14.0787 208.782 12.968V8.667H212.726V18H215.65V6.1ZM219.059 13.019H224.805V10.435H219.059V13.019ZM218.26 6.1V18H221.133V6.1H218.26ZM226.063 12.05C226.063 11.3473 226.205 10.7297 226.488 10.197C226.771 9.653 227.162 9.228 227.661 8.922C228.171 8.616 228.76 8.463 229.429 8.463C230.132 8.463 230.732 8.616 231.231 8.922C231.73 9.228 232.115 9.653 232.387 10.197C232.659 10.7297 232.795 11.3473 232.795 12.05C232.795 12.7527 232.653 13.376 232.37 13.92C232.087 14.4527 231.696 14.872 231.197 15.178C230.698 15.484 230.109 15.637 229.429 15.637C228.76 15.637 228.171 15.484 227.661 15.178C227.162 14.872 226.771 14.4527 226.488 13.92C226.205 13.376 226.063 12.7527 226.063 12.05ZM223.037 12.05C223.037 12.968 223.19 13.8123 223.496 14.583C223.813 15.3537 224.255 16.0223 224.822 16.589C225.4 17.1557 226.08 17.5977 226.862 17.915C227.644 18.221 228.5 18.374 229.429 18.374C230.37 18.374 231.231 18.221 232.013 17.915C232.795 17.5977 233.469 17.1557 234.036 16.589C234.614 16.0223 235.056 15.3537 235.362 14.583C235.679 13.8123 235.838 12.968 235.838 12.05C235.838 11.132 235.679 10.2933 235.362 9.534C235.045 8.77467 234.597 8.11733 234.019 7.562C233.441 7.00667 232.761 6.58167 231.979 6.287C231.208 5.981 230.358 5.828 229.429 5.828C228.534 5.828 227.695 5.981 226.913 6.287C226.131 6.58167 225.451 7.00667 224.873 7.562C224.295 8.11733 223.842 8.77467 223.513 9.534C223.196 10.2933 223.037 11.132 223.037 12.05ZM243.358 10.69L245.823 17.49H249.138L243.358 5.505L237.561 17.49H240.876L243.358 10.69ZM247.268 18V19.87H250.124V15.535H236.575V19.87H239.431V18H247.268ZM254.048 18H260.049V15.637H254.048V18ZM254.048 8.463H260.049V6.1H254.048V8.463ZM254.048 12.9H259.709V10.588H254.048V12.9ZM252.144 6.1V18H254.898V6.1H252.144ZM263.186 13.019H272.196V10.435H263.186V13.019ZM270.377 6.1V18H273.25V6.1H270.377ZM262.387 6.1V18H265.26V6.1H262.387ZM286.648 9.092L286.733 5.505L275.836 15.008L275.751 18.595L286.648 9.092ZM278.505 6.1H275.751V18.595L278.505 15.773V6.1ZM286.733 5.505L283.962 8.429V18H286.733V5.505ZM291.152 18H297.153V15.637H291.152V18ZM291.152 8.463H297.153V6.1H291.152V8.463ZM291.152 12.9H296.813V10.588H291.152V12.9ZM289.248 6.1V18H292.002V6.1H289.248ZM302.551 11.931L305.798 16.895L309.062 11.931L309.776 18H312.802L310.881 5.505L305.798 12.764L300.732 5.505L298.811 18H301.837L302.551 11.931Z" fill="#24272F"/>
<path d="M56.98 41V30.92H58.009V35.68L62.608 30.92H63.924L59.227 35.785L64.309 41H62.965L58.009 35.96V41H56.98ZM67.889 41.21C67.1376 41.21 66.496 41.0397 65.964 40.699C65.432 40.3583 65.0236 39.887 64.739 39.285C64.4543 38.683 64.312 37.9923 64.312 37.213C64.312 36.4197 64.4566 35.7243 64.746 35.127C65.0353 34.5297 65.446 34.0653 65.978 33.734C66.5146 33.398 67.1516 33.23 67.889 33.23C68.645 33.23 69.289 33.4003 69.821 33.741C70.3576 34.077 70.766 34.546 71.046 35.148C71.3306 35.7453 71.473 36.4337 71.473 37.213C71.473 38.0063 71.3306 38.704 71.046 39.306C70.7613 39.9033 70.3506 40.37 69.814 40.706C69.2773 41.042 68.6356 41.21 67.889 41.21ZM67.889 40.223C68.729 40.223 69.3543 39.9453 69.765 39.39C70.1756 38.83 70.381 38.1043 70.381 37.213C70.381 36.2983 70.1733 35.5703 69.758 35.029C69.3473 34.4877 68.7243 34.217 67.889 34.217C67.3243 34.217 66.8576 34.3453 66.489 34.602C66.125 34.854 65.852 35.2063 65.67 35.659C65.4926 36.107 65.404 36.625 65.404 37.213C65.404 38.123 65.614 38.8533 66.034 39.404C66.454 39.95 67.0723 40.223 67.889 40.223ZM73.0101 41V33.44H74.0391V36.723H78.3021V33.44H79.3311V41H78.3021V37.71H74.0391V41H73.0101ZM83.3396 41V34.392H80.6586V33.44H87.0496V34.392H84.3686V41H83.3396ZM91.7793 41.21C91.084 41.21 90.496 41.035 90.0153 40.685C89.5346 40.3303 89.1706 39.852 88.9233 39.25C88.676 38.6433 88.5523 37.9643 88.5523 37.213C88.5523 36.4477 88.676 35.7663 88.9233 35.169C89.1753 34.567 89.544 34.0933 90.0293 33.748C90.5146 33.4027 91.112 33.23 91.8213 33.23C92.512 33.23 93.1046 33.405 93.5993 33.755C94.094 34.105 94.472 34.581 94.7333 35.183C94.9993 35.785 95.1323 36.4617 95.1323 37.213C95.1323 37.969 94.9993 38.648 94.7333 39.25C94.4673 39.852 94.0846 40.3303 93.5853 40.685C93.086 41.035 92.484 41.21 91.7793 41.21ZM88.3773 44.36V33.44H89.3013V39.131H89.4133V44.36H88.3773ZM91.6743 40.251C92.2016 40.251 92.6403 40.118 92.9903 39.852C93.3403 39.586 93.6016 39.2243 93.7743 38.767C93.9516 38.305 94.0403 37.787 94.0403 37.213C94.0403 36.6437 93.954 36.1303 93.7813 35.673C93.6086 35.2157 93.345 34.854 92.9903 34.588C92.6403 34.322 92.1946 34.189 91.6533 34.189C91.126 34.189 90.6873 34.3173 90.3373 34.574C89.992 34.8307 89.733 35.1877 89.5603 35.645C89.3876 36.0977 89.3013 36.6203 89.3013 37.213C89.3013 37.7963 89.3876 38.319 89.5603 38.781C89.733 39.2383 89.9943 39.5977 90.3443 39.859C90.6943 40.1203 91.1376 40.251 91.6743 40.251ZM99.8265 41.21C99.0751 41.21 98.4335 41.0397 97.9015 40.699C97.3695 40.3583 96.9611 39.887 96.6765 39.285C96.3918 38.683 96.2495 37.9923 96.2495 37.213C96.2495 36.4197 96.3941 35.7243 96.6835 35.127C96.9728 34.5297 97.3835 34.0653 97.9155 33.734C98.4521 33.398 99.0891 33.23 99.8265 33.23C100.582 33.23 101.226 33.4003 101.758 33.741C102.295 34.077 102.703 34.546 102.983 35.148C103.268 35.7453 103.41 36.4337 103.41 37.213C103.41 38.0063 103.268 38.704 102.983 39.306C102.699 39.9033 102.288 40.37 101.751 40.706C101.215 41.042 100.573 41.21 99.8265 41.21ZM99.8265 40.223C100.666 40.223 101.292 39.9453 101.702 39.39C102.113 38.83 102.318 38.1043 102.318 37.213C102.318 36.2983 102.111 35.5703 101.695 35.029C101.285 34.4877 100.662 34.217 99.8265 34.217C99.2618 34.217 98.7951 34.3453 98.4265 34.602C98.0625 34.854 97.7895 35.2063 97.6075 35.659C97.4301 36.107 97.3415 36.625 97.3415 37.213C97.3415 38.123 97.5515 38.8533 97.9715 39.404C98.3915 39.95 99.0098 40.223 99.8265 40.223ZM104.255 41V40.097C104.535 40.1483 104.747 40.1367 104.892 40.062C105.041 39.9827 105.151 39.852 105.221 39.67C105.291 39.4833 105.349 39.2523 105.396 38.977C105.47 38.5197 105.538 38.0157 105.599 37.465C105.659 36.9143 105.713 36.3077 105.76 35.645C105.811 34.9777 105.862 34.2427 105.914 33.44H111.052V41H110.03V34.427H106.866C106.833 34.9217 106.796 35.414 106.754 35.904C106.712 36.394 106.667 36.8653 106.621 37.318C106.579 37.766 106.532 38.179 106.481 38.557C106.429 38.935 106.376 39.2617 106.32 39.537C106.236 39.9523 106.124 40.2837 105.984 40.531C105.848 40.7783 105.645 40.9417 105.375 41.021C105.104 41.1003 104.731 41.0933 104.255 41ZM113.014 41L113 33.44H114.036V36.289H115.807C116.027 36.289 116.241 36.2937 116.451 36.303C116.666 36.3123 116.855 36.331 117.018 36.359C117.392 36.429 117.723 36.5527 118.012 36.73C118.306 36.9073 118.535 37.1523 118.698 37.465C118.866 37.7777 118.95 38.1697 118.95 38.641C118.95 39.2897 118.782 39.8007 118.446 40.174C118.115 40.5473 117.695 40.79 117.186 40.902C116.995 40.944 116.787 40.972 116.563 40.986C116.339 40.9953 116.118 41 115.898 41H113.014ZM114.036 40.118H115.856C116.015 40.118 116.192 40.1133 116.388 40.104C116.584 40.0947 116.757 40.069 116.906 40.027C117.154 39.957 117.378 39.817 117.578 39.607C117.784 39.3923 117.886 39.0703 117.886 38.641C117.886 38.2163 117.788 37.8967 117.592 37.682C117.396 37.4627 117.135 37.318 116.808 37.248C116.664 37.2153 116.507 37.1943 116.339 37.185C116.171 37.1757 116.01 37.171 115.856 37.171H114.036V40.118ZM126.012 41.21C125.251 41.21 124.586 41.0443 124.017 40.713C123.452 40.377 123.006 39.9127 122.68 39.32L123.506 38.795C123.781 39.2617 124.124 39.6163 124.535 39.859C124.945 40.1017 125.417 40.223 125.949 40.223C126.504 40.223 126.95 40.0947 127.286 39.838C127.622 39.5813 127.79 39.229 127.79 38.781C127.79 38.473 127.717 38.228 127.573 38.046C127.433 37.864 127.218 37.7333 126.929 37.654C126.644 37.5747 126.287 37.535 125.858 37.535H124.962V36.653H125.844C126.366 36.653 126.786 36.5597 127.104 36.373C127.426 36.1817 127.587 35.883 127.587 35.477C127.587 35.0477 127.426 34.7303 127.104 34.525C126.786 34.315 126.406 34.21 125.963 34.21C125.515 34.21 125.09 34.3033 124.689 34.49C124.292 34.672 123.958 34.9077 123.688 35.197L123.03 34.504C123.408 34.0887 123.849 33.7737 124.353 33.559C124.861 33.3397 125.424 33.23 126.04 33.23C126.525 33.23 126.964 33.3163 127.356 33.489C127.752 33.657 128.065 33.9043 128.294 34.231C128.527 34.5577 128.644 34.9497 128.644 35.407C128.644 35.8363 128.539 36.2073 128.329 36.52C128.123 36.8327 127.832 37.0917 127.454 37.297L127.398 36.912C127.724 36.9727 127.995 37.1033 128.21 37.304C128.424 37.5047 128.583 37.745 128.686 38.025C128.788 38.305 128.84 38.5897 128.84 38.879C128.84 39.3597 128.714 39.775 128.462 40.125C128.214 40.4703 127.876 40.7387 127.447 40.93C127.022 41.1167 126.544 41.21 126.012 41.21ZM132.547 41.21C131.978 41.21 131.5 41.1073 131.112 40.902C130.73 40.6967 130.443 40.4237 130.251 40.083C130.06 39.7423 129.964 39.3713 129.964 38.97C129.964 38.5593 130.046 38.2093 130.209 37.92C130.377 37.626 130.604 37.3857 130.888 37.199C131.178 37.0123 131.511 36.87 131.889 36.772C132.272 36.6787 132.694 36.597 133.156 36.527C133.623 36.4523 134.078 36.3893 134.521 36.338C134.969 36.282 135.361 36.2283 135.697 36.177L135.333 36.401C135.347 35.6543 135.203 35.1013 134.899 34.742C134.596 34.3827 134.069 34.203 133.317 34.203C132.799 34.203 132.361 34.3197 132.001 34.553C131.647 34.7863 131.397 35.155 131.252 35.659L130.251 35.365C130.424 34.6883 130.772 34.1633 131.294 33.79C131.817 33.4167 132.496 33.23 133.331 33.23C134.022 33.23 134.608 33.3607 135.088 33.622C135.574 33.8787 135.917 34.252 136.117 34.742C136.211 34.9613 136.271 35.2063 136.299 35.477C136.327 35.7477 136.341 36.023 136.341 36.303V41H135.424V39.103L135.69 39.215C135.434 39.8637 135.035 40.3583 134.493 40.699C133.952 41.0397 133.303 41.21 132.547 41.21ZM132.666 40.321C133.147 40.321 133.567 40.2347 133.926 40.062C134.286 39.8893 134.575 39.6537 134.794 39.355C135.014 39.0517 135.156 38.711 135.221 38.333C135.277 38.0903 135.308 37.8243 135.312 37.535C135.317 37.241 135.319 37.0217 135.319 36.877L135.711 37.08C135.361 37.1267 134.981 37.1733 134.57 37.22C134.164 37.2667 133.763 37.3203 133.366 37.381C132.974 37.4417 132.62 37.514 132.302 37.598C132.088 37.6587 131.88 37.745 131.679 37.857C131.479 37.9643 131.313 38.109 131.182 38.291C131.056 38.473 130.993 38.6993 130.993 38.97C130.993 39.1893 131.047 39.4017 131.154 39.607C131.266 39.8123 131.444 39.9827 131.686 40.118C131.934 40.2533 132.26 40.321 132.666 40.321ZM144.102 41.21C143.342 41.21 142.698 41.0397 142.17 40.699C141.643 40.3583 141.242 39.8893 140.966 39.292C140.696 38.69 140.556 37.9993 140.546 37.22C140.556 36.4267 140.7 35.7313 140.98 35.134C141.26 34.532 141.664 34.0653 142.191 33.734C142.719 33.398 143.358 33.23 144.109 33.23C144.875 33.23 145.54 33.4167 146.104 33.79C146.674 34.1633 147.063 34.6743 147.273 35.323L146.265 35.645C146.088 35.1923 145.806 34.8423 145.418 34.595C145.036 34.343 144.597 34.217 144.102 34.217C143.547 34.217 143.087 34.3453 142.723 34.602C142.359 34.854 142.089 35.2063 141.911 35.659C141.734 36.1117 141.643 36.632 141.638 37.22C141.648 38.1253 141.858 38.8533 142.268 39.404C142.679 39.95 143.29 40.223 144.102 40.223C144.616 40.223 145.052 40.1063 145.411 39.873C145.775 39.635 146.051 39.2897 146.237 38.837L147.273 39.145C146.993 39.817 146.583 40.3303 146.041 40.685C145.5 41.035 144.854 41.21 144.102 41.21ZM150.592 41V34.392H147.911V33.44H154.302V34.392H151.621V41H150.592ZM159.031 41.21C158.336 41.21 157.748 41.035 157.267 40.685C156.787 40.3303 156.423 39.852 156.175 39.25C155.928 38.6433 155.804 37.9643 155.804 37.213C155.804 36.4477 155.928 35.7663 156.175 35.169C156.427 34.567 156.796 34.0933 157.281 33.748C157.767 33.4027 158.364 33.23 159.073 33.23C159.764 33.23 160.357 33.405 160.851 33.755C161.346 34.105 161.724 34.581 161.985 35.183C162.251 35.785 162.384 36.4617 162.384 37.213C162.384 37.969 162.251 38.648 161.985 39.25C161.719 39.852 161.337 40.3303 160.837 40.685C160.338 41.035 159.736 41.21 159.031 41.21ZM155.629 44.36V33.44H156.553V39.131H156.665V44.36H155.629ZM158.926 40.251C159.454 40.251 159.892 40.118 160.242 39.852C160.592 39.586 160.854 39.2243 161.026 38.767C161.204 38.305 161.292 37.787 161.292 37.213C161.292 36.6437 161.206 36.1303 161.033 35.673C160.861 35.2157 160.597 34.854 160.242 34.588C159.892 34.322 159.447 34.189 158.905 34.189C158.378 34.189 157.939 34.3173 157.589 34.574C157.244 34.8307 156.985 35.1877 156.812 35.645C156.64 36.0977 156.553 36.6203 156.553 37.213C156.553 37.7963 156.64 38.319 156.812 38.781C156.985 39.2383 157.246 39.5977 157.596 39.859C157.946 40.1203 158.39 40.251 158.926 40.251ZM167.078 41.21C166.327 41.21 165.685 41.0397 165.153 40.699C164.621 40.3583 164.213 39.887 163.928 39.285C163.644 38.683 163.501 37.9923 163.501 37.213C163.501 36.4197 163.646 35.7243 163.935 35.127C164.225 34.5297 164.635 34.0653 165.167 33.734C165.704 33.398 166.341 33.23 167.078 33.23C167.834 33.23 168.478 33.4003 169.01 33.741C169.547 34.077 169.955 34.546 170.235 35.148C170.52 35.7453 170.662 36.4337 170.662 37.213C170.662 38.0063 170.52 38.704 170.235 39.306C169.951 39.9033 169.54 40.37 169.003 40.706C168.467 41.042 167.825 41.21 167.078 41.21ZM167.078 40.223C167.918 40.223 168.544 39.9453 168.954 39.39C169.365 38.83 169.57 38.1043 169.57 37.213C169.57 36.2983 169.363 35.5703 168.947 35.029C168.537 34.4877 167.914 34.217 167.078 34.217C166.514 34.217 166.047 34.3453 165.678 34.602C165.314 34.854 165.041 35.2063 164.859 35.659C164.682 36.107 164.593 36.625 164.593 37.213C164.593 38.123 164.803 38.8533 165.223 39.404C165.643 39.95 166.262 40.223 167.078 40.223ZM175.343 32.544C175.011 32.544 174.708 32.4623 174.433 32.299C174.157 32.1357 173.938 31.9187 173.775 31.648C173.616 31.3727 173.537 31.0693 173.537 30.738H174.391C174.391 30.9993 174.484 31.2233 174.671 31.41C174.857 31.5967 175.081 31.69 175.343 31.69C175.609 31.69 175.833 31.5967 176.015 31.41C176.201 31.2233 176.295 30.9993 176.295 30.738H177.149C177.149 31.0693 177.067 31.3727 176.904 31.648C176.745 31.9187 176.528 32.1357 176.253 32.299C175.977 32.4623 175.674 32.544 175.343 32.544ZM178.213 33.44V41H177.212V35.113L173.068 41H172.2V33.44H173.201V39.278L177.352 33.44H178.213ZM180.17 41L180.177 33.44H181.213V37.08L184.587 33.44H185.959L182.417 37.22L186.421 41H184.923L181.213 37.36V41H180.17ZM190.143 41.21C189.392 41.21 188.75 41.0397 188.218 40.699C187.686 40.3583 187.278 39.887 186.993 39.285C186.708 38.683 186.566 37.9923 186.566 37.213C186.566 36.4197 186.711 35.7243 187 35.127C187.289 34.5297 187.7 34.0653 188.232 33.734C188.769 33.398 189.406 33.23 190.143 33.23C190.899 33.23 191.543 33.4003 192.075 33.741C192.612 34.077 193.02 34.546 193.3 35.148C193.585 35.7453 193.727 36.4337 193.727 37.213C193.727 38.0063 193.585 38.704 193.3 39.306C193.015 39.9033 192.605 40.37 192.068 40.706C191.531 41.042 190.89 41.21 190.143 41.21ZM190.143 40.223C190.983 40.223 191.608 39.9453 192.019 39.39C192.43 38.83 192.635 38.1043 192.635 37.213C192.635 36.2983 192.427 35.5703 192.012 35.029C191.601 34.4877 190.978 34.217 190.143 34.217C189.578 34.217 189.112 34.3453 188.743 34.602C188.379 34.854 188.106 35.2063 187.924 35.659C187.747 36.107 187.658 36.625 187.658 37.213C187.658 38.123 187.868 38.8533 188.288 39.404C188.708 39.95 189.326 40.223 190.143 40.223ZM198.407 32.544C198.076 32.544 197.772 32.4623 197.497 32.299C197.222 32.1357 197.002 31.9187 196.839 31.648C196.68 31.3727 196.601 31.0693 196.601 30.738H197.455C197.455 30.9993 197.548 31.2233 197.735 31.41C197.922 31.5967 198.146 31.69 198.407 31.69C198.673 31.69 198.897 31.5967 199.079 31.41C199.266 31.2233 199.359 30.9993 199.359 30.738H200.213C200.213 31.0693 200.131 31.3727 199.968 31.648C199.809 31.9187 199.592 32.1357 199.317 32.299C199.042 32.4623 198.738 32.544 198.407 32.544ZM201.277 33.44V41H200.276V35.113L196.132 41H195.264V33.44H196.265V39.278L200.416 33.44H201.277ZM205.764 40.993L205.771 40.055L210.328 35.939C210.72 35.5843 210.979 35.2483 211.105 34.931C211.236 34.609 211.301 34.273 211.301 33.923C211.301 33.5077 211.203 33.132 211.007 32.796C210.811 32.46 210.548 32.194 210.216 31.998C209.885 31.7973 209.514 31.697 209.103 31.697C208.674 31.697 208.291 31.7997 207.955 32.005C207.619 32.2103 207.353 32.481 207.157 32.817C206.966 33.153 206.873 33.5193 206.877 33.916H205.827C205.827 33.3047 205.972 32.7563 206.261 32.271C206.551 31.7857 206.943 31.4053 207.437 31.13C207.932 30.85 208.492 30.71 209.117 30.71C209.729 30.71 210.277 30.8547 210.762 31.144C211.252 31.4287 211.637 31.816 211.917 32.306C212.202 32.7913 212.344 33.3327 212.344 33.93C212.344 34.35 212.293 34.721 212.19 35.043C212.092 35.3603 211.936 35.6567 211.721 35.932C211.511 36.2027 211.243 36.4827 210.916 36.772L206.87 40.426L206.709 40.006H212.344V40.993H205.764ZM218.193 41V39.047H213.475V38.067L216.849 30.92H218.004L214.63 38.067H218.193V35.127H219.229V38.067H220.328V39.047H219.229V41H218.193ZM224.561 30.92H225.618L222.93 41H221.873L224.561 30.92ZM227.98 41L231.69 31.921H227.021V30.92H232.789V31.921L229.086 41H227.98Z" fill="#595E69"/>
</svg>
