<svg width="70" height="86" viewBox="0 0 70 86" fill="none" xmlns="http://www.w3.org/2000/svg">
<g filter="url(#filter0_d_252_1457)">
<g filter="url(#filter1_d_252_1457)">
<path fill-rule="evenodd" clip-rule="evenodd" d="M60 6C60 2.68629 57.3137 0 54 0H16C12.6863 0 10 2.68629 10 5.99999V44.8696C10 48.1833 12.6863 50.8696 16 50.8696H24.6386C25.2362 50.8696 25.8304 50.9588 26.4016 51.1344L41.8693 55.8892C42.9576 56.2238 44.132 55.7824 44.7451 54.8084L45.4599 53.673C46.5584 51.9282 48.4757 50.8696 50.5375 50.8696H54C57.3137 50.8696 60 48.1833 60 44.8696V6Z" fill="#24D776"/>
</g>
<path d="M40.8047 19.5703C41.4303 19.5703 41.9375 19.08 41.9375 18.4752C41.9375 17.8705 41.4303 17.3802 40.8047 17.3802C40.1791 17.3802 39.6719 17.8705 39.6719 18.4752C39.6719 19.08 40.1791 19.5703 40.8047 19.5703Z" fill="white"/>
<path d="M36.2734 19.5703C36.8991 19.5703 37.4062 19.08 37.4062 18.4752C37.4062 17.8705 36.8991 17.3802 36.2734 17.3802C35.6478 17.3802 35.1406 17.8705 35.1406 18.4752C35.1406 19.08 35.6478 19.5703 36.2734 19.5703Z" fill="white"/>
<path d="M34.0078 29.0495C33.3822 29.0495 32.875 29.5398 32.875 30.1446V32.3346C32.875 32.9385 32.3668 33.4297 31.7422 33.4297H24.2656V30.1446C24.2656 29.5398 23.7585 29.0495 23.1328 29.0495C22.5072 29.0495 22 29.5398 22 30.1446V38.9049C22 39.5097 22.5072 40 23.1328 40C23.7585 40 24.2656 39.5097 24.2656 38.9049V35.6198H31.7422C33.6161 35.6198 35.1406 34.1461 35.1406 32.3346V30.1446C35.1406 29.5398 34.6335 29.0495 34.0078 29.0495Z" fill="white"/>
<path d="M49.8672 17.3802H46.6636C47.1312 16.1057 48.3904 15.1901 49.8672 15.1901C50.4928 15.1901 51 14.6998 51 14.095C51 13.4903 50.4928 13 49.8672 13H25.3984C23.5245 13 22 14.4737 22 16.2851V22.8554C22 24.6669 23.5245 26.1406 25.3984 26.1406H43.0703C44.5471 26.1406 45.8062 25.225 46.2739 23.9505H49.8672C50.4928 23.9505 51 23.4602 51 22.8554V18.4752C51 17.8705 50.4928 17.3802 49.8672 17.3802ZM43.0703 23.9505H25.3984C24.7738 23.9505 24.2656 23.4593 24.2656 22.8554V16.2851C24.2656 15.6813 24.7738 15.1901 25.3984 15.1901H45.3386C44.6261 16.1058 44.2031 17.2438 44.2031 18.4752V22.8554C44.2031 23.4593 43.6949 23.9505 43.0703 23.9505ZM48.7344 21.7604H46.4688V19.5703H48.7344V21.7604Z" fill="white"/>
</g>
<defs>
<filter id="filter0_d_252_1457" x="0" y="0" width="70" height="76" filterUnits="userSpaceOnUse" color-interpolation-filters="sRGB">
<feFlood flood-opacity="0" result="BackgroundImageFix"/>
<feColorMatrix in="SourceAlpha" type="matrix" values="0 0 0 0 0 0 0 0 0 0 0 0 0 0 0 0 0 0 127 0" result="hardAlpha"/>
<feOffset dy="10"/>
<feGaussianBlur stdDeviation="5"/>
<feComposite in2="hardAlpha" operator="out"/>
<feColorMatrix type="matrix" values="0 0 0 0 0.101823 0 0 0 0 0.479167 0 0 0 0 0.209635 0 0 0 0.15 0"/>
<feBlend mode="normal" in2="BackgroundImageFix" result="effect1_dropShadow_252_1457"/>
<feBlend mode="normal" in="SourceGraphic" in2="effect1_dropShadow_252_1457" result="shape"/>
</filter>
<filter id="filter1_d_252_1457" x="0" y="0" width="70" height="86" filterUnits="userSpaceOnUse" color-interpolation-filters="sRGB">
<feFlood flood-opacity="0" result="BackgroundImageFix"/>
<feColorMatrix in="SourceAlpha" type="matrix" values="0 0 0 0 0 0 0 0 0 0 0 0 0 0 0 0 0 0 127 0" result="hardAlpha"/>
<feMorphology radius="10" operator="erode" in="SourceAlpha" result="effect1_dropShadow_252_1457"/>
<feOffset dy="20"/>
<feGaussianBlur stdDeviation="10"/>
<feComposite in2="hardAlpha" operator="out"/>
<feColorMatrix type="matrix" values="0 0 0 0 0.0811459 0 0 0 0 0.5125 0 0 0 0 0.278749 0 0 0 0.2 0"/>
<feBlend mode="normal" in2="BackgroundImageFix" result="effect1_dropShadow_252_1457"/>
<feBlend mode="normal" in="SourceGraphic" in2="effect1_dropShadow_252_1457" result="shape"/>
</filter>
</defs>
</svg>
