<svg width="84" height="84" viewBox="0 0 84 84" fill="none" xmlns="http://www.w3.org/2000/svg">
<path d="M73.5804 48.0303C73.2126 47.4802 72.6407 47.0982 71.9906 46.9686C71.3404 46.8389 70.6653 46.9721 70.1136 47.3389L60.9723 53.4177C60.0379 52.6911 58.9375 52.2068 57.7695 52.0081C56.6015 51.8095 55.4023 51.9027 54.2793 52.2795L46.5002 41.9334H56.5003C57.1633 41.9334 57.7992 41.6707 58.268 41.2031C58.7369 40.7355 59.0003 40.1013 59.0003 39.44V19.4933C59.0003 18.8321 58.7369 18.1979 58.268 17.7303C57.7992 17.2627 57.1633 17 56.5003 17H26.5001C25.8371 17 25.2012 17.2627 24.7323 17.7303C24.2635 18.1979 24.0001 18.8321 24.0001 19.4933V21.0218L12.291 17.1292C11.9153 17.0038 11.515 16.9694 11.1233 17.0287C10.7316 17.0881 10.3597 17.2395 10.0382 17.4704C9.71674 17.7013 9.45494 18.0052 9.27442 18.357C9.0939 18.7087 8.99984 19.0982 9 19.4933V39.44C9 40.1013 9.26339 40.7355 9.73224 41.2031C10.2011 41.6707 10.837 41.9334 11.5 41.9334C11.769 41.9339 12.0362 41.8903 12.291 41.8042L17.291 40.1414C17.6105 40.0445 17.9073 39.8847 18.1638 39.6715C18.4203 39.4583 18.6314 39.196 18.7847 38.9001C18.9379 38.6042 19.0301 38.2807 19.0559 37.9486C19.0817 37.6166 19.0405 37.2828 18.9348 36.9669C18.8292 36.6509 18.6611 36.3593 18.4405 36.1093C18.22 35.8592 17.9515 35.6558 17.6508 35.5109C17.3501 35.366 17.0234 35.2827 16.6899 35.2659C16.3564 35.249 16.0229 35.299 15.709 35.4128L14 35.98V22.9533L24.0001 26.2765V39.44C24.0001 40.1013 24.2635 40.7355 24.7323 41.2031C25.2012 41.6707 25.8371 41.9334 26.5001 41.9334H40.2514L50.2622 55.2453C49.5486 56.2835 49.1081 57.4839 48.9813 58.7362C48.8544 59.9886 49.0452 61.2526 49.5362 62.4122C50.0271 63.5717 50.8025 64.5896 51.791 65.3722C52.7795 66.1548 53.9493 66.677 55.1931 66.8908C56.4368 67.1047 57.7145 67.0033 58.9087 66.5959C60.1028 66.1886 61.1752 65.4884 62.0271 64.5597C62.879 63.6311 63.4832 62.5037 63.7841 61.2813C64.085 60.0589 64.0729 58.7806 63.7491 57.5641L72.8871 51.4873C73.4386 51.1205 73.8214 50.5503 73.9514 49.902C74.0814 49.2537 73.948 48.5805 73.5804 48.0303ZM29.0001 21.9867H54.0003V36.9467H29.0001V21.9867ZM56.5003 61.8801C56.0058 61.8801 55.5225 61.7338 55.1113 61.4599C54.7002 61.1859 54.3798 60.7965 54.1906 60.3409C54.0013 59.8853 53.9518 59.384 54.0483 58.9003C54.1448 58.4166 54.3829 57.9724 54.7325 57.6237C55.0821 57.275 55.5276 57.0375 56.0125 56.9413C56.4975 56.8451 57.0002 56.8945 57.457 57.0832C57.9138 57.2719 58.3043 57.5915 58.579 58.0015C58.8537 58.4115 59.0003 58.8936 59.0003 59.3867C58.9997 60.0478 58.7361 60.6817 58.2674 61.1491C57.7987 61.6166 57.1631 61.8795 56.5003 61.8801Z" fill="#24D776"/>
</svg>
