<svg width="84" height="84" viewBox="0 0 84 84" fill="none" xmlns="http://www.w3.org/2000/svg">
<path d="M78.5071 15.96H71.0284C70.3658 15.9561 69.729 16.215 69.2585 16.6792L65.0205 20.92H62.8295V18.44C62.8295 14.331 59.4813 11 55.3508 11H10.4787C6.34827 11 3 14.331 3 18.44V58.12C3 62.2291 6.34827 65.56 10.4787 65.56H12.9716V60.6H10.4787C9.10183 60.6 7.9858 59.4897 7.9858 58.12V18.44C7.9858 17.0703 9.10183 15.96 10.4787 15.96H55.3508C56.7277 15.96 57.8437 17.0703 57.8437 18.44V43.24H62.8295V25.88H66.0426C66.7053 25.8839 67.3422 25.625 67.8126 25.1608L72.0505 20.92H76.0142V55.64H72.0505L67.7876 51.3992L64.2727 54.896L69.2585 59.856C69.7248 60.3294 70.3622 60.5972 71.0284 60.6H78.5071C79.884 60.6 81 59.4897 81 58.12V18.44C81 17.0703 79.884 15.96 78.5071 15.96Z" fill="#24D776"/>
<path d="M47.8722 35.8C49.249 35.8 50.3651 34.6897 50.3651 33.32V23.4C50.3651 22.0303 49.249 20.92 47.8722 20.92H17.9574C16.5805 20.92 15.4645 22.0303 15.4645 23.4V33.32C15.4645 34.6897 16.5805 35.8 17.9574 35.8H47.8722Z" fill="#24D776"/>
<path d="M50.3651 48.2H45.3793C42.6257 48.2 40.3935 50.4207 40.3935 53.16V68.04C40.3935 70.7793 42.6257 73 45.3793 73H50.3651C55.8722 73 60.3366 68.5586 60.3366 63.08V58.12C60.3366 52.6414 55.8722 48.2 50.3651 48.2ZM55.3508 63.08C55.3508 65.8193 53.1186 68.04 50.3651 68.04H45.3793V53.16H50.3651C53.1186 53.16 55.3508 55.3807 55.3508 58.12V63.08Z" fill="#24D776"/>
<path d="M32.9148 58.12H22.9432V48.2H17.9574V73H22.9432V63.08H32.9148V73H37.9006V48.2H32.9148V58.12Z" fill="#24D776"/>
</svg>
