<svg width="84" height="84" viewBox="0 0 84 84" fill="none" xmlns="http://www.w3.org/2000/svg">
<path d="M41.5002 53.9398C45.3896 53.9398 48.5539 50.7609 48.5539 46.8533C48.5539 42.9458 45.3896 39.7668 41.5002 39.7668C37.6108 39.7668 34.4465 42.9458 34.4465 46.8533C34.4465 50.7609 37.6108 53.9398 41.5002 53.9398ZM41.5002 43.8685C43.1411 43.8685 44.4713 45.2049 44.4713 46.8534C44.4713 48.502 43.1411 49.8384 41.5002 49.8384C39.8593 49.8384 38.5291 48.502 38.5291 46.8534C38.5291 45.2049 39.8593 43.8685 41.5002 43.8685Z" fill="#24D776"/>
<path d="M41.5001 23.3574C33.8689 23.3574 26.748 26.7773 21.9631 32.7403L20.6819 34.3369L30.2159 42.0579L31.4972 40.4636C33.9498 37.4121 37.5957 35.6621 41.5002 35.6621C45.4047 35.6621 49.0507 37.4122 51.5034 40.4636L52.7846 42.0578L62.3187 34.3367L61.0375 32.7401C56.2526 26.7773 49.1316 23.3574 41.5001 23.3574ZM26.4989 33.7796C30.4339 29.74 35.7968 27.459 41.5001 27.459C47.2036 27.459 52.5665 29.74 56.5014 33.7795L53.3036 36.3692C50.1589 33.2915 45.9574 31.5604 41.5001 31.5604C37.0428 31.5604 32.8413 33.2915 29.6966 36.3692L26.4989 33.7796Z" fill="#24D776"/>
<path d="M73.7145 22.4694C70.3494 18.2891 66.286 14.849 61.6372 12.2447C55.5127 8.81357 48.5494 7 41.5001 7C34.4508 7 27.4877 8.81357 21.3632 12.2447C16.7144 14.849 12.651 18.2891 9.28573 22.4693L8 24.0664L17.535 31.7884L18.8161 30.192C24.3687 23.2729 32.6366 19.3047 41.5001 19.3047C50.3635 19.3047 58.6318 23.2729 64.1841 30.192L65.4652 31.7884L75 24.0666L73.7145 22.4694ZM13.7882 23.4859C16.545 20.4134 19.7543 17.8423 23.3516 15.827C28.8695 12.7356 35.1452 11.1016 41.5001 11.1016C47.8551 11.1016 54.1308 12.7356 59.6487 15.827C63.2461 17.8422 66.4553 20.4135 69.2119 23.4861L66.0333 26.0603C59.7502 19.1351 50.9201 15.2031 41.5001 15.2031C32.0802 15.2031 23.2502 19.1351 16.967 26.0603L13.7882 23.4859Z" fill="#24D776"/>
<path d="M50.2498 69.0238H55.2158C54.7003 71.0864 53.325 72.8983 50.649 72.8983C47.397 72.8983 44.7514 70.2402 44.7514 66.9731C44.7514 63.7059 47.397 61.0478 50.649 61.0478C51.8311 61.0478 52.9709 61.3973 53.9453 62.0586L56.2305 58.6599C54.5787 57.5389 52.6488 56.9464 50.649 56.9464C45.1459 56.9464 40.6689 61.4444 40.6689 66.9732C40.6689 72.502 45.1459 77 50.649 77C55.886 77 59.5437 72.8768 59.5437 66.9732V64.9224H50.2498V69.0238Z" fill="#24D776"/>
<path d="M35.7289 56.9464H30.6767L23.4584 69.1623L23.4546 72.962H31.6463V76.9919H35.7289V72.962H37.816V68.8605H35.7289V56.9464ZM31.6463 68.8605H28.3845L31.6463 63.3403V68.8605Z" fill="#24D776"/>
</svg>
