<svg width="84" height="84" viewBox="0 0 84 84" fill="none" xmlns="http://www.w3.org/2000/svg">
<path d="M75.6046 32.1164C74.7384 29.5551 72.657 27.9412 70.8203 26.5161C69.8389 25.7555 68.912 25.0364 68.3764 24.3317C67.8305 23.6126 67.3991 22.5392 66.9431 21.4017C66.0987 19.2984 65.1398 16.9156 62.9214 15.3678C60.7501 13.8507 58.133 13.7096 55.824 13.5883C54.5264 13.5181 53.3003 13.4526 52.3666 13.1609C51.5113 12.8958 50.5231 12.279 49.4776 11.6254C47.5067 10.3945 45.2719 9 42.4988 9C39.7243 9 37.4923 10.3945 35.5227 11.6254C34.4759 12.279 33.489 12.8944 32.6324 13.1623C31.7 13.4526 30.4726 13.5181 29.1736 13.5883C26.866 13.7123 24.2503 13.8507 22.0762 15.3678C19.8592 16.9156 18.9017 19.2984 18.0559 21.4003C17.5999 22.5378 17.1672 23.6126 16.6199 24.3344C16.0842 25.0405 15.1574 25.7595 14.1746 26.5202C12.342 27.9439 10.2606 29.5565 9.39573 32.1151C8.55268 34.6021 9.22944 37.0577 9.82646 39.2237C10.159 40.4301 10.4732 41.5676 10.4732 42.5C10.4732 43.4337 10.159 44.5713 9.82646 45.779C9.22944 47.9436 8.55405 50.3986 9.39573 52.8876C10.262 55.4462 12.342 57.0581 14.1773 58.4819C15.1587 59.2432 16.0856 59.9615 16.6213 60.6663C17.1672 61.3867 17.5986 62.4601 18.0559 63.599C18.9003 65.703 19.8606 68.0857 22.0803 69.6363C24.2516 71.1507 26.866 71.2904 29.1736 71.4117C30.4726 71.4813 31.7 71.5474 32.6324 71.8377C33.4877 72.1042 34.4745 72.721 35.5186 73.374C37.4896 74.6055 39.7243 76 42.4988 76C45.2733 76 47.5094 74.6055 49.4804 73.374C50.5258 72.721 51.5127 72.1056 52.368 71.8377C53.3003 71.5474 54.5278 71.4813 55.8267 71.4117C58.1344 71.2891 60.7487 71.1493 62.9214 69.6349C65.1412 68.0857 66.0987 65.7003 66.9458 63.5949C67.4018 62.4588 67.8332 61.384 68.3764 60.6683C68.912 59.9615 69.8389 59.2432 70.8203 58.4832C72.6557 57.0595 74.7384 55.4462 75.6046 52.8876C76.4477 50.3986 75.7696 47.9436 75.1725 45.7769C74.8386 44.5713 74.5244 43.431 74.5244 42.4986C74.5244 41.5663 74.8386 40.4267 75.1725 39.221C75.7696 37.0577 76.4463 34.6007 75.6046 32.1164ZM69.7905 47.2627C70.1919 48.7226 70.6097 50.233 70.3167 51.0965C69.9895 52.0643 68.6735 53.0846 67.4004 54.0715C66.1764 55.0202 64.9122 56.0003 63.9294 57.2946C62.933 58.608 62.338 60.0863 61.7649 61.5141C61.1549 63.0286 60.5797 64.4592 59.7251 65.0562C58.8616 65.6607 57.2436 65.7459 55.5296 65.838C53.9444 65.9231 52.3053 66.0097 50.7085 66.5079C49.1662 66.9884 47.8236 67.8261 46.5239 68.6371C45.0586 69.5524 43.6751 70.4167 42.4988 70.4167C41.3239 70.4167 39.9404 69.5524 38.4765 68.6398C37.1768 67.8288 35.8342 66.9884 34.2919 66.5093C32.6937 66.0111 31.056 65.9231 29.4708 65.8393C27.7567 65.7487 26.1388 65.6621 25.2767 65.0596C24.4207 64.4619 23.8461 63.0313 23.2362 61.5169C22.661 60.089 22.066 58.6093 21.0669 57.2946C20.0868 56.0017 18.8226 55.0202 17.5986 54.0715C16.3269 53.086 15.0108 52.0643 14.6837 51.0979C14.3906 50.233 14.807 48.7226 15.2085 47.2607C15.6051 45.8219 16.0549 44.1889 16.0549 42.5014C16.0549 40.8138 15.6051 39.1822 15.2085 37.7414C14.807 36.2815 14.3906 34.7725 14.6837 33.9055C15.0108 32.9398 16.3255 31.9195 17.5972 30.9339C18.8212 29.9832 20.0882 29.001 21.0669 27.7095C22.066 26.3934 22.6623 24.9137 23.2375 23.4845C23.8461 21.9714 24.4207 20.5422 25.2726 19.9472C26.1388 19.3413 27.7581 19.2547 29.4721 19.1627C31.056 19.0775 32.6937 18.9896 34.2905 18.4941C35.8342 18.0143 37.1781 17.1739 38.4792 16.3629C39.9431 15.4455 41.3252 14.5833 42.4988 14.5833C43.6738 14.5833 45.0559 15.4455 46.5212 16.3602C47.8222 17.1726 49.1662 18.0129 50.7085 18.49C52.3067 18.9869 53.943 19.0762 55.5269 19.16C57.2409 19.2507 58.8602 19.3372 59.7251 19.9445C60.5797 20.5408 61.1529 21.9687 61.7615 23.4818C62.3367 24.911 62.9317 26.3907 63.9308 27.7068C64.9122 28.9976 66.1764 29.9791 67.4004 30.9285C68.6721 31.914 69.9882 32.9357 70.3167 33.9042C70.6097 34.7684 70.1919 36.2774 69.7905 37.7373C69.3925 39.1781 68.9413 40.8111 68.9413 42.5C68.9413 44.1889 69.3925 45.8219 69.7905 47.2627Z" fill="#24D776"/>
<path d="M55.0607 42.5C55.0607 49.4274 49.4258 55.0625 42.4988 55.0625C35.5718 55.0625 29.9369 49.4274 29.9369 42.5C29.9369 35.5726 35.5718 29.9375 42.4988 29.9375H45.2903V24.3542H42.4988C32.494 24.3542 24.3539 32.4947 24.3539 42.5C24.3539 52.5053 32.494 60.6458 42.4988 60.6458C52.5036 60.6458 60.6438 52.5053 60.6438 42.5V39.7083H55.0607V42.5Z" fill="#24D776"/>
<path d="M39.7073 35.7607L35.7599 39.7083L42.4988 46.4469L57.6123 31.3333L53.6649 27.3857L42.4988 38.5524L39.7073 35.7607Z" fill="#24D776"/>
</svg>
