<svg width="84" height="84" viewBox="0 0 84 84" fill="none" xmlns="http://www.w3.org/2000/svg">
<path d="M66.1865 78C64.6325 78 63.3728 76.7388 63.3728 75.1829C63.3728 68.2224 59.7242 61.6778 53.947 58.0479L53.9467 65.6048C53.8084 69.3386 48.4562 69.3357 48.3192 65.6048V63.8766C47.461 64.175 46.5402 64.3371 45.582 64.3371H37.2689C36.3108 64.3371 35.3897 64.175 34.5318 63.8766V65.6048C34.3935 69.3386 29.0413 69.3357 28.9043 65.6048V58.0603C24.2938 60.9749 20.8205 65.6607 19.6662 70.6412C19.5332 71.2152 19.7775 71.6338 19.9349 71.8323C20.093 72.0314 20.4467 72.3657 21.0383 72.3657H54.9315C58.6609 72.5041 58.6581 77.8627 54.9315 77.9999H21.0382C18.8798 77.9999 16.8717 77.0292 15.5289 75.3372C14.187 73.6462 13.697 71.4704 14.1842 69.3677C15.8267 62.281 21.0687 55.6904 27.8646 52.1682C27.8714 52.1647 27.8781 52.1612 27.885 52.1578C29.5298 51.3217 31.2311 51.3086 32.5526 52.1206C33.8008 52.8878 34.5207 54.277 34.5315 55.9358C34.5168 57.4561 35.7499 58.7037 37.2687 58.7029H45.5818C47.1008 58.7037 48.334 57.4561 48.3192 55.9358C48.33 54.277 49.0499 52.8878 50.2981 52.1206C51.6192 51.3086 53.3204 51.3218 54.9656 52.1578C59.1136 54.2646 62.6218 57.5017 65.1105 61.519C67.655 65.6263 69 70.3512 69 75.1829C69.0003 76.7388 67.7404 78 66.1865 78ZM61.4031 28.7008H21.7292C17.9999 28.5624 18.0027 23.2038 21.7292 23.0666H22.2803C25.1043 0.302813 57.4034 0.319433 60.219 23.0666H61.4031C65.1324 23.2051 65.1295 28.5636 61.4031 28.7008ZM27.9478 23.0666H54.5514C52.0656 7.76333 30.4278 7.77431 27.9478 23.0666ZM59.1445 35.8536C59.6714 34.39 58.9134 32.7756 57.4515 32.2481C55.9905 31.7205 54.3775 32.4793 53.8503 33.943C49.5518 45.6778 32.9183 45.6717 28.6099 33.7874C28.0748 32.3267 26.4585 31.5769 24.9994 32.1126C23.5405 32.6484 22.7916 34.2668 23.3266 35.7275C26.108 43.3194 33.2897 48.4204 41.1976 48.4204C49.2262 48.4205 56.4384 43.3702 59.1445 35.8536Z" fill="#24D776"/>
</svg>
